<svg id="Layer_1" data-name="Layer 1" xmlns="http://www.w3.org/2000/svg" width="39.9146" height="325.6642" viewBox="0 0 39.9146 325.6642"><defs><style>.cls-1{fill:#ff7e00;}</style></defs><polygon class="cls-1" points="29.408 290.067 29.408 284.184 11.189 302.403 29.408 320.621 29.408 314.738 17.073 302.403 29.408 290.067"/><polygon class="cls-1" points="11.189 325.664 29.408 325.664 11.189 307.445 11.189 325.664"/><polygon class="cls-1" points="22.221 302.403 29.408 309.59 29.408 295.215 22.221 302.403"/><polygon class="cls-1" points="29.408 268.215 17.073 255.879 29.408 243.543 29.408 237.66 11.189 255.879 29.408 274.098 29.408 268.215"/><polygon class="cls-1" points="11.189 260.922 11.189 297.36 29.408 279.141 11.189 260.922"/><polygon class="cls-1" points="29.408 263.067 29.408 248.691 22.221 255.879 29.408 263.067"/><polygon class="cls-1" points="7.827 250.836 7.827 204.313 7.827 157.789 7.827 111.266 7.827 64.742 7.827 18.219 7.827 0 5.043 0 5.043 18.219 5.043 64.742 5.043 111.266 5.043 157.789 5.043 204.313 5.043 250.836 5.043 297.36 5.043 325.664 7.827 325.664 7.827 297.36 7.827 250.836"/><polygon class="cls-1" points="2.785 250.836 2.785 204.313 2.785 157.789 2.785 111.266 2.785 64.742 2.785 18.219 2.785 0 0 0 0 18.219 0 64.742 0 111.266 0 157.789 0 204.313 0 250.836 0 297.36 0 325.664 2.785 325.664 2.785 297.36 2.785 250.836"/><polygon class="cls-1" points="29.408 221.691 17.073 209.356 29.408 197.02 29.408 191.137 11.189 209.356 29.408 227.574 29.408 221.691"/><polygon class="cls-1" points="11.189 214.398 11.189 250.836 29.408 232.617 11.189 214.398"/><polygon class="cls-1" points="29.408 216.543 29.408 202.168 22.221 209.356 29.408 216.543"/><polygon class="cls-1" points="29.408 175.168 17.073 162.832 29.408 150.496 29.408 144.613 11.189 162.832 29.408 181.051 29.408 175.168"/><polygon class="cls-1" points="11.189 167.875 11.189 204.313 29.408 186.094 11.189 167.875"/><polygon class="cls-1" points="29.408 170.02 29.408 155.644 22.221 162.832 29.408 170.02"/><polygon class="cls-1" points="29.408 128.644 17.073 116.309 29.408 103.973 29.408 98.09 11.189 116.309 29.408 134.528 29.408 128.644"/><polygon class="cls-1" points="11.189 121.351 11.189 157.789 29.408 139.57 11.189 121.351"/><polygon class="cls-1" points="29.408 123.496 29.408 109.121 22.221 116.309 29.408 123.496"/><polygon class="cls-1" points="29.408 82.121 17.073 69.785 29.408 57.45 29.408 51.566 11.189 69.785 29.408 88.004 29.408 82.121"/><polygon class="cls-1" points="11.189 74.828 11.189 111.266 29.408 93.047 11.189 74.828"/><polygon class="cls-1" points="29.408 76.973 29.408 62.597 22.221 69.785 29.408 76.973"/><polygon class="cls-1" points="29.408 35.597 17.073 23.262 29.408 10.926 29.408 5.043 11.189 23.262 29.408 41.481 29.408 35.597"/><polygon class="cls-1" points="11.189 28.305 11.189 64.742 29.408 46.523 11.189 28.305"/><polygon class="cls-1" points="29.408 30.449 29.408 16.074 22.221 23.262 29.408 30.449"/><polygon class="cls-1" points="39.915 250.836 39.915 204.313 39.915 157.789 39.915 111.266 39.915 64.742 39.915 18.219 39.915 0 32.77 0 32.77 18.219 32.77 64.742 32.77 111.266 32.77 157.789 32.77 204.313 32.77 250.836 32.77 297.36 32.77 325.664 39.915 325.664 39.915 297.36 39.915 250.836"/><polygon class="cls-1" points="29.408 0 11.189 0 11.189 18.219 29.408 0"/></svg>