<svg id="Layer_1" data-name="Layer 1" xmlns="http://www.w3.org/2000/svg" width="235.465" height="45.2266" viewBox="0 0 235.465 45.2266"><defs><style>.cls-1{fill:#123a3a;}.cls-2,.cls-3{fill:none;stroke:#123a3a;stroke-miterlimit:10;}.cls-2{stroke-width:0.4833px;}.cls-3{stroke-width:0.4558px;}.cls-4{fill:#ff7e00;}</style></defs><polyline class="cls-1" points="72.305 11.476 74.539 11.476 74.539 16.762 80.602 16.762 80.602 11.476 82.836 11.476 82.836 24.183 80.602 24.183 80.602 18.832 74.539 18.832 74.539 24.183 72.305 24.183"/><path class="cls-1" d="M96.883,17.8672v-.0349a4.357,4.357,0,0,0-4.32-4.5242,4.2955,4.2955,0,0,0-4.286,4.4851v.0391a4.3365,4.3365,0,0,0,4.321,4.5A4.2784,4.2784,0,0,0,96.883,17.8672Zm-10.945,0v-.0349a6.6451,6.6451,0,0,1,13.289-.0391v.0391a6.6452,6.6452,0,0,1-13.289.0349Z"/><path class="cls-1" d="M107.527,17.9263c1.598,0,2.614-.8321,2.614-2.125v-.0362c0-1.3589-.981-2.1049-2.633-2.1049h-3.25v4.2661m-2.231-6.2972h5.664a5.11,5.11,0,0,1,3.668,1.2691A3.8345,3.8345,0,0,1,112.41,15.64v.0362a3.8126,3.8126,0,0,1-3.012,3.8469l3.43,4.813H110.18l-3.125-4.43h-2.797v4.43h-2.231Z"/><polyline class="cls-1" points="115.32 11.476 117.391 11.476 124.199 20.265 124.199 11.476 126.398 11.476 126.398 24.183 124.527 24.183 117.52 15.144 117.52 24.183 115.32 24.183"/><path class="cls-1" d="M145.16,17.8672v-.0349a4.357,4.357,0,0,0-4.32-4.5242,4.2929,4.2929,0,0,0-4.285,4.4851v.0391a4.3363,4.3363,0,0,0,4.32,4.5A4.2784,4.2784,0,0,0,145.16,17.8672Zm-10.949,0v-.0349a6.6451,6.6451,0,0,1,13.289-.0391v.0391a6.6452,6.6452,0,0,1-13.289.0349Z"/><polyline class="cls-1" points="150.152 11.476 159.609 11.476 159.609 13.512 152.383 13.512 152.383 16.976 158.793 16.976 158.793 19.012 152.383 19.012 152.383 24.183 150.152 24.183"/><path class="cls-1" d="M173.984,19.14l-2.195-5.0859-2.18,5.0859m1.18-7.7529h2.07l5.59,12.7959H176.09l-1.289-3.0659h-6.008l-1.309,3.0659h-2.285Z"/><polyline class="cls-1" points="180.43 11.476 189.891 11.476 189.891 13.512 182.664 13.512 182.664 16.976 189.074 16.976 189.074 19.012 182.664 19.012 182.664 24.183 180.43 24.183"/><path class="cls-1" d="M197.57,17.7771c1.598,0,2.614-.8359,2.614-2.125v-.0349c0-1.3631-.981-2.105-2.633-2.105h-3.25v4.2649m-2.235-6.3008h5.664a5.127,5.127,0,0,1,3.668,1.27,3.8492,3.8492,0,0,1,1.055,2.742v.0349a3.8183,3.8183,0,0,1-3.015,3.852l3.433,4.8079h-2.652l-3.121-4.4248h-2.797v4.4248h-2.235Z"/><rect class="cls-1" x="205.273" y="11.4763" width="2.23" height="12.7068"/><path class="cls-1" d="M210.141,17.8672v-.0349a6.4311,6.4311,0,0,1,6.554-6.574,6.6143,6.6143,0,0,1,4.973,1.98L220.234,14.89a5.049,5.049,0,0,0-3.558-1.582,4.2814,4.2814,0,0,0-4.196,4.4851v.0391a4.28,4.28,0,0,0,4.196,4.5,4.9633,4.9633,0,0,0,3.648-1.6331l1.434,1.4529a6.5572,6.5572,0,0,1-5.156,2.25A6.39,6.39,0,0,1,210.141,17.8672Z"/><path class="cls-1" d="M231,19.14l-2.195-5.0859-2.18,5.0859m1.18-7.7529h2.07l5.59,12.7959h-2.36l-1.289-3.0659h-6.007L224.5,24.1831h-2.289Z"/><rect class="cls-1" x="72.281" y="28.0151" width="2.234" height="12.707"/><polyline class="cls-1" points="77.879 28.015 79.949 28.015 86.758 36.804 86.758 28.015 88.957 28.015 88.957 40.722 87.086 40.722 80.078 31.683 80.078 40.722 77.879 40.722"/><rect class="cls-1" x="92.395" y="28.0151" width="2.234" height="12.707"/><polyline class="cls-1" points="100.813 30.086 96.785 30.086 96.785 28.015 107.098 28.015 107.098 30.086 103.066 30.086 103.066 40.726 100.813 40.726"/><rect class="cls-1" x="109.18" y="28.0151" width="2.23" height="12.707"/><path class="cls-1" d="M122.098,35.6792l-2.196-5.085-2.179,5.085m1.179-7.7529h2.071l5.59,12.7959h-2.36l-1.289-3.066h-6.008l-1.308,3.066h-2.285Z"/><polyline class="cls-1" points="130.5 30.086 126.473 30.086 126.473 28.015 136.781 28.015 136.781 30.086 132.754 30.086 132.754 40.726 130.5 40.726"/><rect class="cls-1" x="138.867" y="28.0151" width="2.23" height="12.707"/><polyline class="cls-1" points="143.223 28.015 145.691 28.015 149.523 37.785 153.336 28.015 155.75 28.015 150.484 40.816 148.508 40.816"/><polyline class="cls-1" points="157.602 28.015 167.023 28.015 167.023 30.012 159.832 30.012 159.832 33.316 166.207 33.316 166.207 35.312 159.832 35.312 159.832 38.726 167.113 38.726 167.113 40.722 157.602 40.722"/><path class="cls-2" d="M49.047,39.0942l.062-6.375,1.672-1.8049a12.2321,12.2321,0,0,0-1.433.0779c-.129.062-.207.2031-.371.0981a1.242,1.242,0,0,1-.411-.4651c-.101-.1921-.191-.2739-.371-.215-.179.0551-.203.113-.363.0981-.164-.0161-.172-.0591-.234.0459-.059.106-.067.1331-.254.1221-.192-.0161-.153-.0711-.297.0859-.141.156-.313.5581-.656.605-.34.0471-.379.082-.536,0-.152-.0779-.097-.086-.23-.07s-.359.05-.445-.0669c-.09-.113-.121-.082-.231-.082s-.605-.054-.605-.054l-2.731-1.102-1.011.0119c-.829-.02-1.793.011-1.793.011l-.079.6961s.45.1211.782,1.1011c.093.2819.918,2.227.918,2.227a4.9932,4.9932,0,0,1-.539,1.594l-.942,1.988,2.481.2068s-2.637.9221-2.332,1.1131c.304.1879,5.152,3.051,5.14,3.2741a5.0791,5.0791,0,0,0,.235,1.4529,11.3521,11.3521,0,0,1,1.078.707c.133.105.219.1761.219.1761s.472.187.476.187a11.4711,11.4711,0,0,1,3.07-4.9221,1.2716,1.2716,0,0,0,.164-.2459l-.433-.4141Z"/><path class="cls-2" d="M51.375,17.7583c.047.6208-.273.468-.711.781a3.7766,3.7766,0,0,0-.176.637l1.172.3278a2.4571,2.4571,0,0,1-.277.8631l-1.707-.2539s-.137-.012-.141-.094c0-.0781-.062-.09-.125-.136s.028-.1331.028-.1331c-.028-.1679-.176-.844-.176-.844l.367-1.7771,1.219-.3479.254.617S51.398,17.5972,51.375,17.7583Z"/><path class="cls-2" d="M62.574,18.7622l.004,1.1521s-.41,1.6438-.75,2.98a10.2688,10.2688,0,0,1-.844,2.3169c-.828,1.988-1.769,3.4841-2.711,5.3081-.187.2229-1.929,2.1838-2.429,2.7109-.5.5239-4.313,3.7461-4.313,3.7461a13.951,13.951,0,0,0-2.043,2.6018L49.48,39.57l-.433-.4182.062-6.4329s1.11-1.18,1.672-1.8049c.028-.0271,1.813-1.0161,1.813-1.0161l2.211-.16L58.68,24.48l-1.418-.0039a7.2784,7.2784,0,0,1-2.106-.9292l-2.058-1.0278-.739-.9761-.664-.7151-.312-.4609.277-.8631,1.606,1.55.441.063a32.2818,32.2818,0,0,0,8.066-2.262l.157-.1089Z"/><path class="cls-2" d="M57.305,24.4763a6.3845,6.3845,0,0,1-2.149-.9292l-2.058-1.0278s-.235-.324-.739-.9761c-.054-.071-.75-.8091-.75-.8091l-.226-.3669-1.707-.2539-.285-.2691-.129-.938s.109-1.625.367-1.7771l-.477-.2778-1.336-1.1291L44.66,14.48l-.754.844-1.09-.1289-.843-.6291-.328,2.184-2.391,3.4261a2.053,2.053,0,0,1-.262.437l-.015.0158c-.004.0081-.012.011-.016.0152v.0039l-.012.0161h-.004a.0389.0389,0,0,1-.011.0149v.0039a.0589.0589,0,0,0-.012.0161c-.004.0039-.004.012-.008.0161v.0039c-.004.003-.008.0071-.008.011v.0039l-.008.0122V20.75l-.003.012v.0029l-.004.012v.0041a.0237.0237,0,0,1-.004.0159v.0191a.0143.0143,0,0,1-.004.0119v.07a.9109.9109,0,0,0,.086.281l-.004,2.5591s-.512.051-.547.1518c-.039.0982-.207.094-.324-.0429-.117-.1319-.086-.085-.172-.0349a.3315.3315,0,0,1-.234.0319c-.09-.0039-.071.0149-.137-.028-.067-.0469-.106-.105-.102.0859,0,.1921.028.2461-.062.3052a.4926.4926,0,0,1-.196.0779c-.101.0271-.089.07-.058.133.027.0581.008.0859-.047.1211s-.039.1008,0,.1719c.035.07.047.082.035.136-.012.059-.027.1411.078.0791a3.499,3.499,0,0,1,1.582.3549,9.493,9.493,0,0,1,1.25,1.9881c.309.719.606,1.457,1.438,1.489l.14,1.011a.5681.5681,0,0,0,.082.27l2.664,1.07s.5.0552.61.0552.14-.031.23.082c.086.117.313.0818.446.066.132-.011.078-.0081.23.071.156.0779,1.117-.426,1.117-.426,1.059-1.0081,1.93-.469,2.801.051l.992-.094,1.813-1.0161,2.211-.16L58.68,24.48A11.5584,11.5584,0,0,0,57.305,24.4763Z"/><path class="cls-3" d="M42.363,6.8042a44.4773,44.4773,0,0,0-.679-4.8L40.043.4883,38.266,1.6091l-.067,1.11-1.597-.8249-11.243.2888c.086,1.4612.164,2.7661.164,2.7661h-1.39l.019.5549-.011-.0078.121,5.461s.015.051-.09.062a.3359.3359,0,0,0-.223.0859c-.086.0711-.152.1961-.234.1331-.078-.062-.106-.117-.188-.1211-.078-.0081-.074-.012-.105-.0469-.027-.0351-.043-.019-.086.012a.2865.2865,0,0,1-.164.0149c-.059-.0069-.102-.0269-.156.028-.059.054-.032.086-.129.1331-.098.043-.09.0388-.071.0659.024.031.028.0271.024.082-.133.27.176.504.176.504l-1.844,3.039s-.195.1951-.184.281a1.04,1.04,0,0,1,.016.1719c-.004.0591-.024.1291.031.145.055.0191.102-.0239.106.0662s-.016.09.054.09c.067,0,.082.0191.098.0391.02.0229.059.043.031-.02s-.051-.1009-.008-.128c.039-.0319.137-.0859.149-.125.012-.0429.015-.0671.07-.0671a.3849.3849,0,0,0,.149-.012c.066-.0149.093-.0068.086.0511s0,.059-.063.102c-.059.043-.012.051.012.0659.031.0122.066.0591-.016.0511-.078-.0081-.14-.043-.152-.0081-.016.0391-.024.0432-.016.07s-.008.0361-.015.051-.004.0161.003.051a.034.034,0,0,0,.063.0161c.016-.0322.047-.0671.07-.0322.024.0322.043.0432.067.0391.027-.003.023.0161.027.0471.008.0278-.012.0349-.031.0388-.024,0-.117.0161-.117.0791a.2091.2091,0,0,1-.02.1279c-.019.0362-.023.0591.02.0552s.058.0078.078-.0271.058-.0349.058.0081-.008.1169-.008.195a1.1823,1.1823,0,0,0,.012.336.812.812,0,0,1,.082.176c.004.0349.063.043.149.043s.097.0029.132.0459l.012.0119a.2149.2149,0,0,0,.121.0352.1791.1791,0,0,1,.164.0859c.071.09.137.1919.036.2581a.1779.1779,0,0,0-.094.188c0,.0739.004.1008.054.1318.04.0281.114.1062.055.145.098.1292-.012.2342-.062.32-.067.1059.113.1531.254.2539a2.1674,2.1674,0,0,1,.457.5742,3.5705,3.5705,0,0,1,.414.84c.109.3281-.145.3171-.246.3869-.106.074-.114.1641-.051.312a2.4825,2.4825,0,0,1,.094.543s.242.2.363.176c.488-.5149.426-.2419.707.043a.5591.5591,0,0,1-.035.2351c-.028.0659-.024.0781.062.082.082,0,.086.023.113.085.028.0591.106.0471.188.0471.086,0,.105.0159.152.094a.05.05,0,0,0,.02.02.8531.8531,0,0,0,.387.0469c.105.0029.148.113.21.2219a.6156.6156,0,0,0,.071.1021c.113.125.297.1091.472.105.071,0,.106.0161.122.0429a3.6841,3.6841,0,0,0,1.425-.8469l1.516.105.504.5591,1.015-.032.407-.5152s2.851-.082,3.832-.1918l.957-1.6011.012-1.094-.254-.3479.035-.4141h.605l.004-.5969,1.332.093-.18,2.489.922.7029.457.2691,1.254-1.804,1.739-2.512.023-1.352.383-1.9722.297-2.969,2.078-1.77Z"/><path class="cls-2" d="M49.629,17.1291l-.477-.2778s-.871-.675-1.336-1.1291c-.566-.2381-3.156-1.242-3.156-1.242l-.754.844-1.09-.1289-.843-.6291.16-1.2691.297-2.969,2.078-1.77,1.508,4.2891.672.114.3.6291,1.25.4138,2.61,2.7771Z"/><path class="cls-2" d="M37.922,30.9763c.137-.1211.301-.144.336-.1951a.2551.2551,0,0,1,.066-.0781.3845.3845,0,0,1,.078-.0268c.086-.0161.125-.055.254-.2232a.6248.6248,0,0,0,.059-.07c.18-.2312.34-.36.437-.4961.098-.1331-.011.0071-.011.0071a12.162,12.162,0,0,0,2.394.071,8.1569,8.1569,0,0,0-.066-1.207c-.375.0969-1.121-.6611-1.387-1.426a9.8892,9.8892,0,0,0-1.301-2.0511s-1.222-.445-1.347-.4489-.121.0229-.231.0859c-.113.0581-.094-.02-.082-.0779s0-.0671-.035-.1372c-.039-.07-.055-.1408,0-.1719.055-.0349.074-.062.047-.125-.028-.059-.043-.102.058-.1291a.4478.4478,0,0,0,.196-.0818c.09-.0581.062-.1091.058-.301-.004-.1951.035-.1321.106-.09.066.043.043.0239.137.032a.3523.3523,0,0,0,.234-.0349c.086-.0511.055-.0982.172.039.117.1319.289.14.324.0388s.547-.1408.547-.1408l-.082-2.8941-1.352-1.051.02-2.4609-1.434.008.153.64h-.758l-.02.5239.297.105.004,1.156-.969,1.762s-4.316.7971-5.074.5432-2.074-.562-2.074-.562a5.3016,5.3016,0,0,1-1.528.8508,8.6259,8.6259,0,0,1-1.816-.7968l.051-.2852-.778-.0349.106,1.7619.883.668L26.078,24.75l2.207,2.7539,1.809,2.3672,2.273-.0122s.235.2461.379.4341a1.6732,1.6732,0,0,0,.484.4021c.215.1519.461.2459.559.449a.3227.3227,0,0,0,.176.18.6688.6688,0,0,0,.18.023C35.453,31.4573,36.504,30.7031,37.922,30.9763Z"/><path class="cls-4" d="M37.566,6.3672H34.965c-1.766,13-6.418,21.613-10.035,26.5591a32.416,32.416,0,0,1-7.582,7.7568l.105.1721c.66.5,1.344.9851,2.051,1.449C35.313,31.3323,37.566,6.3672,37.566,6.3672Z"/><path class="cls-4" d="M23.16,17.7463a62.6154,62.6154,0,0,0,2.637-8.02h2.676a62.7651,62.7651,0,0,1-2.418,8.02M30.676,6.3672V6.3591h-6.34v.0081H23.332a54.5832,54.5832,0,0,1-8.957,20.75,38.9233,38.9233,0,0,1-4.57,5.2461c.617.8589,1.269,1.7029,1.968,2.531a46.3656,46.3656,0,0,0,9.895-13.781h2.984a48.6686,48.6686,0,0,1-4.945,8.5349,36.201,36.201,0,0,1-6.457,6.9031q1.0905,1.1474,2.305,2.2258c3.898-3.1758,13.496-12.7808,16.824-32.41Z"/><path class="cls-1" d="M9.148,24.5432q-.8145-1.6588-1.585-3.5591h3.929c-.797,1.34-1.586,2.52-2.328,3.5352A.0807.0807,0,0,0,9.148,24.5432ZM3.133,18.1643a58.0131,58.0131,0,0,0,3.816,9.1328c-.023.0271-.043.05-.066.0781q.7845,1.4535,1.699,2.898a48.4019,48.4019,0,0,0,8.051-12.1089Z"/><path class="cls-1" d="M5.809,17.5q-.546-1.7295-1.028-3.61H15.242c-.504,1.2862-1.027,2.4812-1.558,3.61h3.66a66.3022,66.3022,0,0,0,3.738-11.207H17.68c-.364,1.418-.758,2.7649-1.176,4.054H3.977c-.266-1.304-.5-2.6519-.704-4.054H0s.027.418.117,1.168A74.7783,74.7783,0,0,0,2.344,17.5"/></svg>