<svg width="31" height="31" viewBox="0 0 31 31" fill="none" xmlns="http://www.w3.org/2000/svg">
<circle cx="15.6001" cy="15.2598" r="14.5" stroke="#DBDBDB"/>
<path d="M23.5251 15.3302C23.2882 13.4452 22.4228 12.2598 19.8745 12.2598C18.3631 12.2598 17.3476 12.821 16.9331 13.609H16.8888V12.2598H14.101V14.1784V22.2597H17.015V17.3036C17.015 15.9962 17.2615 14.7307 18.8786 14.7307C20.4716 14.7307 20.5998 16.2251 20.5998 17.3879V22.2597H23.6001V16.7643C23.6001 16.2518 23.5789 15.7722 23.5231 15.3302M10.3508 7.25977C9.38403 7.25977 8.6001 8.04365 8.6001 9.00978C8.6001 9.97661 9.38403 10.7598 10.3508 10.7598C11.3175 10.7598 12.1007 9.97661 12.1007 9.00978C12.1007 8.04365 11.3175 7.25977 10.3508 7.25977ZM8.60046 14.9137V22.2598H12.1009V14.323V12.2599H8.60046V14.9137Z" fill="#0072B1"/>
</svg>
