<svg width="51" height="51" viewBox="0 0 51 51" fill="none" xmlns="http://www.w3.org/2000/svg">
<g id="icon-Share">
<circle id="Ellipse 18" cx="25.6001" cy="25.6885" r="25" fill="#ff7e00"/>
<path id="Vector" d="M31.6001 35.6885C30.7668 35.6885 30.0584 35.3968 29.4751 34.8135C28.8918 34.2301 28.6001 33.5218 28.6001 32.6885C28.6001 32.5718 28.6084 32.4508 28.6251 32.3255C28.6418 32.2001 28.6668 32.0878 28.7001 31.9885L21.6501 27.8885C21.3668 28.1385 21.0501 28.3345 20.7001 28.4765C20.3501 28.6185 19.9834 28.6891 19.6001 28.6885C18.7668 28.6885 18.0584 28.3968 17.4751 27.8135C16.8918 27.2301 16.6001 26.5218 16.6001 25.6885C16.6001 24.8551 16.8918 24.1468 17.4751 23.5635C18.0584 22.9801 18.7668 22.6885 19.6001 22.6885C19.9834 22.6885 20.3501 22.7595 20.7001 22.9015C21.0501 23.0435 21.3668 23.2391 21.6501 23.4885L28.7001 19.3885C28.6668 19.2885 28.6418 19.1761 28.6251 19.0515C28.6084 18.9268 28.6001 18.8058 28.6001 18.6885C28.6001 17.8551 28.8918 17.1468 29.4751 16.5635C30.0584 15.9801 30.7668 15.6885 31.6001 15.6885C32.4334 15.6885 33.1418 15.9801 33.7251 16.5635C34.3084 17.1468 34.6001 17.8551 34.6001 18.6885C34.6001 19.5218 34.3084 20.2301 33.7251 20.8135C33.1418 21.3968 32.4334 21.6885 31.6001 21.6885C31.2168 21.6885 30.8501 21.6178 30.5001 21.4765C30.1501 21.3351 29.8334 21.1391 29.5501 20.8885L22.5001 24.9885C22.5334 25.0885 22.5584 25.2011 22.5751 25.3265C22.5918 25.4518 22.6001 25.5725 22.6001 25.6885C22.6001 25.8051 22.5918 25.9261 22.5751 26.0515C22.5584 26.1768 22.5334 26.2891 22.5001 26.3885L29.5501 30.4885C29.8334 30.2385 30.1501 30.0428 30.5001 29.9015C30.8501 29.7601 31.2168 29.6891 31.6001 29.6885C32.4334 29.6885 33.1418 29.9801 33.7251 30.5635C34.3084 31.1468 34.6001 31.8551 34.6001 32.6885C34.6001 33.5218 34.3084 34.2301 33.7251 34.8135C33.1418 35.3968 32.4334 35.6885 31.6001 35.6885Z" fill="white"/>
</g>
</svg>
