<?xml version="1.0" encoding="UTF-8"?><svg id="Layer_1" xmlns="http://www.w3.org/2000/svg" width="50.78" height="51.38" viewBox="0 0 50.78 51.38"><defs><style>.cls-1{fill:#fff;}.cls-2{fill:none;stroke:#fff;stroke-miterlimit:10;}.cls-3{fill:#ed1c24;}</style></defs><circle class="cls-3" cx="25.39" cy="25.69" r="25"/><rect class="cls-2" x="15.03" y="21.77" width="15.35" height="8.7"/><path class="cls-2" d="m19.55,21.82v-4.92c0-.54.46-.98,1.02-.98h11.05l4.13,3.89v14.66c0,.54-.45.98-1.02.98h-14.17c-.56,0-1.02-.44-1.02-.98v-4"/><path class="cls-1" d="m16.97,26.14c0-1.63.71-2.51,1.74-2.51s1.74.88,1.74,2.51-.71,2.56-1.74,2.56-1.74-.88-1.74-2.56Zm2.48,0c0-1.02-.29-1.56-.74-1.56s-.74.54-.74,1.56.29,1.6.74,1.6.74-.55.74-1.6Z"/><path class="cls-1" d="m21.17,23.72h1.19c1.25,0,2.08.74,2.08,2.42s-.83,2.47-2.02,2.47h-1.25v-4.89Zm1.14,4c.67,0,1.13-.41,1.13-1.58s-.46-1.53-1.13-1.53h-.16v3.11h.16Z"/><path class="cls-1" d="m26.19,24.65h-1.3v-.93h3.57v.93h-1.3v3.96h-.98v-3.96Z"/></svg>