<?xml version="1.0" encoding="UTF-8"?><svg id="Layer_1" xmlns="http://www.w3.org/2000/svg" width="50.78" height="51.38" viewBox="0 0 50.78 51.38"><defs><style>.cls-1{fill:none;stroke:#fff;stroke-miterlimit:10;stroke-width:1px;}.cls-2{fill:#ed1c24;}</style></defs><ellipse class="cls-2" cx="25.39" cy="25.69" rx="25" ry="25.14"/><path class="cls-1" d="m32.86,20.22v13.61c0,.12-.03.24-.08.35-.05.12-.12.21-.21.3-.09.08-.19.14-.3.19-.11.04-.23.06-.36.06h-13.06c-.25,0-.48-.09-.66-.25-.17-.18-.28-.4-.28-.65v-16.29c0-.25.11-.47.28-.65.18-.16.41-.26.66-.25h10.19l3.81,3.58Z"/><polyline class="cls-1" points="32.86 20.25 29.05 20.25 29.05 16.64"/><path class="cls-1" d="m21.53,31.16s.04.65.75.42c.71-.24,2.04-3.09,2.49-4.61.45-1.37.79-2.77,1.03-4.2.05-.71-.43-.8-.6-.78s-.72.26-.45,1.23c.26.95.66,1.84,1.18,2.67.54.91,1.2,1.76,1.97,2.49.2.22.45.39.73.48.28.11.58.15.88.12.62-.12.82-1.17-.29-1.17-1.14.03-2.28.23-3.37.6-1.28.37-2.5.92-3.62,1.65-.56.48-.69.77-.69,1.09Z"/></svg>