<?xml version="1.0" encoding="UTF-8"?><svg id="Layer_1" xmlns="http://www.w3.org/2000/svg" width="50.78" height="51.38" viewBox="0 0 50.78 51.38"><defs><style>.cls-1{fill:#fff;}.cls-2{fill:none;stroke:#fff;stroke-miterlimit:10;}.cls-3{fill:#ed1c24;}</style></defs><circle class="cls-3" cx="25.39" cy="25.69" r="25"/><rect class="cls-2" x="15" y="21.77" width="15.35" height="8.7"/><path class="cls-2" d="m19.57,21.82v-4.92c0-.54.46-.98,1.02-.98h11.05l4.13,3.89v14.66c0,.54-.45.98-1.02.98h-14.17c-.56,0-1.02-.44-1.02-.98v-4"/><polyline class="cls-2" points="35.78 19.82 31.65 19.82 31.65 15.93"/><path class="cls-1" d="m17.29,23.72h1.53c.94,0,1.69.38,1.69,1.57s-.78,1.66-1.69,1.66h-.56v1.66h-.98v-4.89Zm1.48,2.35c.54,0,.79-.27.79-.78s-.28-.7-.79-.7h-.5v1.48h.5Z"/><path class="cls-1" d="m21.28,23.72h1.53c.94,0,1.69.38,1.69,1.57s-.78,1.66-1.69,1.66h-.56v1.66h-.98v-4.89Zm1.48,2.35c.54,0,.79-.27.79-.78s-.28-.7-.79-.7h-.5v1.48h.5Z"/><path class="cls-1" d="m26.27,24.65h-1.3v-.93h3.57v.93h-1.3v3.96h-.98v-3.96Z"/></svg>