<?xml version="1.0" encoding="UTF-8"?><svg id="Layer_1" xmlns="http://www.w3.org/2000/svg" width="50.78" height="51.38" viewBox="0 0 50.78 51.38"><defs><style>.cls-1{fill:#fff;}.cls-2{fill:none;stroke:#fff;stroke-miterlimit:10;}.cls-3{fill:#ed1c24;}</style></defs><circle class="cls-3" cx="25.39" cy="25.69" r="25"/><path class="cls-2" d="m33.36,20.34v13.36c0,.49-.41.89-.93.89h-14.09c-.51,0-.93-.4-.93-.89v-16.01c0-.49.42-.89.93-.89h11.26l3.77,3.54Z"/><polyline class="cls-2" points="33.36 20.34 29.6 20.34 29.6 16.8"/><path class="cls-1" d="m20.82,23.47h-1.26v-.9h3.44v.9h-1.26v3.86h-.91v-3.86Z"/><path class="cls-1" d="m26.33,27.32l-.95-1.65-.94,1.65h-1.05l1.46-2.42-1.39-2.34h1.04l.91,1.54.89-1.54h.99l-1.38,2.3,1.47,2.46h-1.06Z"/><path class="cls-1" d="m29.12,23.47h-1.26v-.9h3.44v.9h-1.26v3.86h-.91v-3.86Z"/><line class="cls-2" x1="20.9" y1="29.65" x2="29.51" y2="29.65"/><line class="cls-2" x1="20.9" y1="32.19" x2="29.51" y2="32.19"/></svg>