<?xml version="1.0" encoding="UTF-8"?><svg id="Layer_1" xmlns="http://www.w3.org/2000/svg" width="50.78" height="51.38" viewBox="0 0 50.78 51.38"><defs><style>.cls-1{fill:#fff;}.cls-2{fill:none;stroke:#fff;stroke-miterlimit:10;stroke-width:.84px;}.cls-3{fill:#ed1c24;}</style></defs><circle class="cls-3" cx="25.39" cy="25.69" r="25"/><path class="cls-1" d="m19.35,23.51c.4-.02.8-.04,1.2-.06.28,1.36.57,2.72.87,4.08.24-1.4.5-2.8.76-4.2.42-.01.84-.04,1.26-.06-.48,1.96-.9,3.93-1.42,5.87-.35.18-.88,0-1.3.02-.28-1.34-.61-2.67-.86-4.01-.02.12-.04.23-.07.35-.24,1.19-.53,2.37-.78,3.55-.41-.02-.81-.04-1.22-.07-.35-1.78-.76-3.54-1.09-5.32.36-.02.72-.03,1.09-.04.22,1.29.46,2.57.65,3.86.3-1.32.6-2.64.9-3.96h0Z"/><path class="cls-2" d="m19.7,20.86v-4.24c0-.56.46-1.01,1.04-1.01h11.24l4.2,4.01v15.13c0,.56-.46,1.01-1.04,1.01h-14.4c-.57,0-1.04-.45-1.04-1.01v-2.7"/><rect class="cls-2" x="14.6" y="21.05" width="10.91" height="10.53"/><line class="cls-2" x1="27.34" y1="24.4" x2="33.9" y2="24.4"/><line class="cls-2" x1="27.34" y1="27.85" x2="33.9" y2="27.85"/></svg>