<?xml version="1.0" encoding="UTF-8"?><svg id="Layer_1" xmlns="http://www.w3.org/2000/svg" width="50.78" height="51.38" viewBox="0 0 50.78 51.38"><defs><style>.cls-1{fill:#fff;}.cls-2{fill:none;stroke:#fff;stroke-miterlimit:10;}.cls-3{fill:#ed1c24;}</style></defs><circle class="cls-3" cx="25.39" cy="25.69" r="25"/><path class="cls-1" d="m22.08,28.71l-1.42-1.56-1.39,1.56h-1.56l2.17-2.29-2.06-2.21h1.54l1.35,1.46,1.32-1.46h1.47l-2.04,2.17,2.19,2.33h-1.57Z"/><path class="cls-2" d="m20.15,21.24v-3.91c0-.51.43-.93.96-.93h10.36l3.87,3.7v13.94c0,.51-.43.93-.95.93h-13.27c-.53,0-.96-.42-.96-.93v-2.49"/><rect class="cls-2" x="15.44" y="21.41" width="10.05" height="9.7"/><line class="cls-2" x1="27.19" y1="24.5" x2="33.24" y2="24.5"/><line class="cls-2" x1="27.19" y1="27.68" x2="33.24" y2="27.68"/></svg>