<svg width="17" height="18" viewBox="0 0 17 18" fill="none" xmlns="http://www.w3.org/2000/svg">
<path d="M15.3094 17.5398L15.3094 17.5397H15.2974H1.06845V17.5396L1.06241 17.5397C0.940122 17.5413 0.822129 17.4947 0.733995 17.4099C0.647035 17.3262 0.596057 17.2121 0.591714 17.0916V0.908125C0.596057 0.787664 0.647035 0.67352 0.733996 0.589861C0.822129 0.505075 0.940122 0.458432 1.06241 0.46004L1.06241 0.46008H1.06845H12.2798L15.7741 3.77856V17.0951C15.7731 17.1543 15.7604 17.2127 15.7369 17.267C15.713 17.3221 15.6785 17.3719 15.6353 17.4134L15.9542 17.745L15.6353 17.4135C15.592 17.4551 15.5409 17.4876 15.485 17.5093L15.6513 17.9382L15.485 17.5093C15.4291 17.531 15.3694 17.5414 15.3094 17.5398Z" stroke="#218E38" stroke-width="0.92" stroke-miterlimit="10"/>
<mask id="path-2-inside-1_1066_21313" fill="white">
<path d="M15.6317 4H12.1317V0.5"/>
</mask>
<path d="M12.1317 4H11.2117V4.92H12.1317V4ZM15.6317 3.08H12.1317V4.92H15.6317V3.08ZM13.0517 4V0.5H11.2117V4H13.0517Z" fill="#218E38" mask="url(#path-2-inside-1_1066_21313)"/>
<path d="M3.09607 14.2289H12.8666" stroke="#218E38" stroke-width="0.92" stroke-miterlimit="10"/>
<path d="M5.79976 10.5915C5.84376 10.5915 5.88176 10.6085 5.91376 10.6425L6.23176 10.9875C6.05576 11.2055 5.83876 11.3725 5.58076 11.4885C5.32476 11.6045 5.01676 11.6625 4.65676 11.6625C4.33476 11.6625 4.04476 11.6075 3.78676 11.4975C3.53076 11.3875 3.31176 11.2345 3.12976 11.0385C2.94776 10.8425 2.80776 10.6085 2.70976 10.3365C2.61376 10.0645 2.56576 9.7675 2.56576 9.4455C2.56576 9.1195 2.61976 8.8215 2.72776 8.5515C2.83576 8.2795 2.98776 8.0455 3.18376 7.8495C3.37976 7.6535 3.61376 7.5015 3.88576 7.3935C4.15976 7.2835 4.46176 7.2285 4.79176 7.2285C5.11376 7.2285 5.39476 7.2805 5.63476 7.3845C5.87676 7.4865 6.08376 7.6225 6.25576 7.7925L5.98576 8.1675C5.96976 8.1915 5.94876 8.2125 5.92276 8.2305C5.89876 8.2485 5.86476 8.2575 5.82076 8.2575C5.77476 8.2575 5.72776 8.2395 5.67976 8.2035C5.63176 8.1675 5.57076 8.1285 5.49676 8.0865C5.42276 8.0445 5.32876 8.0055 5.21476 7.9695C5.10276 7.9335 4.95976 7.9155 4.78576 7.9155C4.58176 7.9155 4.39376 7.9515 4.22176 8.0235C4.05176 8.0935 3.90476 8.1945 3.78076 8.3265C3.65876 8.4585 3.56276 8.6195 3.49276 8.8095C3.42476 8.9975 3.39076 9.2095 3.39076 9.4455C3.39076 9.6895 3.42476 9.9065 3.49276 10.0965C3.56276 10.2865 3.65676 10.4465 3.77476 10.5765C3.89276 10.7065 4.03176 10.8065 4.19176 10.8765C4.35176 10.9445 4.52376 10.9785 4.70776 10.9785C4.81776 10.9785 4.91676 10.9725 5.00476 10.9605C5.09476 10.9485 5.17676 10.9295 5.25076 10.9035C5.32676 10.8775 5.39776 10.8445 5.46376 10.8045C5.53176 10.7625 5.59876 10.7115 5.66476 10.6515C5.68476 10.6335 5.70576 10.6195 5.72776 10.6095C5.74976 10.5975 5.77376 10.5915 5.79976 10.5915ZM9.16815 8.0655C9.14615 8.1095 9.12015 8.1405 9.09015 8.1585C9.06215 8.1765 9.02815 8.1855 8.98815 8.1855C8.94815 8.1855 8.90315 8.1705 8.85315 8.1405C8.80315 8.1085 8.74415 8.0735 8.67615 8.0355C8.60815 7.9975 8.52815 7.9635 8.43615 7.9335C8.34615 7.9015 8.23915 7.8855 8.11515 7.8855C8.00315 7.8855 7.90515 7.8995 7.82115 7.9275C7.73915 7.9535 7.66915 7.9905 7.61115 8.0385C7.55515 8.0865 7.51315 8.1445 7.48515 8.2125C7.45715 8.2785 7.44315 8.3515 7.44315 8.4315C7.44315 8.5335 7.47115 8.6185 7.52715 8.6865C7.58515 8.7545 7.66115 8.8125 7.75515 8.8605C7.84915 8.9085 7.95615 8.9515 8.07615 8.9895C8.19615 9.0275 8.31815 9.0685 8.44215 9.1125C8.56815 9.1545 8.69115 9.2045 8.81115 9.2625C8.93115 9.3185 9.03815 9.3905 9.13215 9.4785C9.22615 9.5645 9.30115 9.6705 9.35715 9.7965C9.41515 9.9225 9.44415 10.0755 9.44415 10.2555C9.44415 10.4515 9.41015 10.6355 9.34215 10.8075C9.27615 10.9775 9.17815 11.1265 9.04815 11.2545C8.92015 11.3805 8.76315 11.4805 8.57715 11.5545C8.39115 11.6265 8.17815 11.6625 7.93815 11.6625C7.80015 11.6625 7.66415 11.6485 7.53015 11.6205C7.39615 11.5945 7.26715 11.5565 7.14315 11.5065C7.02115 11.4565 6.90615 11.3965 6.79815 11.3265C6.69215 11.2565 6.59715 11.1785 6.51315 11.0925L6.74715 10.7055C6.76915 10.6775 6.79515 10.6545 6.82515 10.6365C6.85715 10.6165 6.89215 10.6065 6.93015 10.6065C6.98015 10.6065 7.03415 10.6275 7.09215 10.6695C7.15015 10.7095 7.21815 10.7545 7.29615 10.8045C7.37615 10.8545 7.46915 10.9005 7.57515 10.9425C7.68315 10.9825 7.81215 11.0025 7.96215 11.0025C8.19215 11.0025 8.37015 10.9485 8.49615 10.8405C8.62215 10.7305 8.68515 10.5735 8.68515 10.3695C8.68515 10.2555 8.65615 10.1625 8.59815 10.0905C8.54215 10.0185 8.46715 9.9585 8.37315 9.9105C8.27915 9.8605 8.17215 9.8185 8.05215 9.7845C7.93215 9.7505 7.81015 9.7135 7.68615 9.6735C7.56215 9.6335 7.44015 9.5855 7.32015 9.5295C7.20015 9.4735 7.09315 9.4005 6.99915 9.3105C6.90515 9.2205 6.82915 9.1085 6.77115 8.9745C6.71515 8.8385 6.68715 8.6715 6.68715 8.4735C6.68715 8.3155 6.71815 8.1615 6.78015 8.0115C6.84415 7.8615 6.93615 7.7285 7.05615 7.6125C7.17815 7.4965 7.32715 7.4035 7.50315 7.3335C7.67915 7.2635 7.88015 7.2285 8.10615 7.2285C8.36215 7.2285 8.59815 7.2685 8.81415 7.3485C9.03015 7.4285 9.21415 7.5405 9.36615 7.6845L9.16815 8.0655ZM9.63395 7.2765H10.2849C10.3549 7.2765 10.4119 7.2935 10.4559 7.3275C10.4999 7.3615 10.5329 7.4055 10.5549 7.4595L11.5749 10.1055C11.6089 10.1915 11.6409 10.2865 11.6709 10.3905C11.7029 10.4925 11.7329 10.6005 11.7609 10.7145C11.8069 10.4845 11.8639 10.2815 11.9319 10.1055L12.9489 7.4595C12.9669 7.4135 12.9989 7.3715 13.0449 7.3335C13.0909 7.2955 13.1479 7.2765 13.2159 7.2765H13.8669L12.1149 11.6145H11.3859L9.63395 7.2765Z" fill="#218E38"/>
</svg>
