<svg width="19" height="18" viewBox="0 0 19 18" fill="none" xmlns="http://www.w3.org/2000/svg">
<mask id="path-1-inside-1_106_12957" fill="white">
<path d="M5.26343 6.05389V1.83496C5.26488 1.72385 5.2882 1.61412 5.33207 1.51204C5.37593 1.40995 5.43947 1.3175 5.51907 1.23997C5.59866 1.16244 5.69275 1.10136 5.79596 1.06019C5.89916 1.01903 6.00947 0.998603 6.12057 1.00007H15.4935L19 4.3396V16.963C18.9942 17.1884 18.8998 17.4024 18.7373 17.5587C18.5747 17.715 18.3572 17.8009 18.1317 17.7979H6.12057C6.00947 17.7994 5.89916 17.7789 5.79596 17.7378C5.69275 17.6966 5.59866 17.6355 5.51907 17.558C5.43947 17.4805 5.37593 17.388 5.33207 17.2859C5.2882 17.1838 5.26488 17.0741 5.26343 16.963V14.7367"/>
</mask>
<path d="M5.26343 1.83496L4.34343 1.82293V1.83496H5.26343ZM6.12057 1.00007L6.10838 1.92007H6.12057V1.00007ZM15.4935 1.00007L16.128 0.333867L15.8615 0.0800742H15.4935V1.00007ZM19 4.3396H19.92V3.94532L19.6345 3.67339L19 4.3396ZM19 16.963L19.9197 16.9868L19.92 16.9749V16.963H19ZM18.1317 17.7979L18.144 16.8779H18.1317V17.7979ZM6.12057 17.7979V16.8778L6.10839 16.878L6.12057 17.7979ZM5.26343 16.963H4.34335L4.34351 16.975L5.26343 16.963ZM6.18343 6.05389V1.83496H4.34343V6.05389H6.18343ZM6.18335 1.84698C6.18322 1.8567 6.18118 1.86629 6.17735 1.87522L4.48679 1.14885C4.39522 1.36196 4.34654 1.59101 4.34351 1.82293L6.18335 1.84698ZM6.17735 1.87522C6.17351 1.88414 6.16796 1.89223 6.16099 1.89901L4.87714 0.580932C4.71098 0.742775 4.57835 0.935758 4.48679 1.14885L6.17735 1.87522ZM6.16099 1.89901C6.15403 1.90579 6.1458 1.91113 6.13677 1.91474L5.45514 0.205651C5.23969 0.291576 5.04329 0.419099 4.87714 0.580932L6.16099 1.89901ZM6.13677 1.91474C6.12775 1.91834 6.1181 1.92012 6.10839 1.91999L6.13275 0.0801548C5.90083 0.0770832 5.67058 0.119727 5.45514 0.205651L6.13677 1.91474ZM6.12057 1.92007H15.4935V0.0800742H6.12057V1.92007ZM14.859 1.66628L18.3655 5.00581L19.6345 3.67339L16.128 0.333867L14.859 1.66628ZM18.08 4.3396V16.963H19.92V4.3396H18.08ZM18.0803 16.9392C18.0807 16.9227 18.0877 16.907 18.0996 16.8955L19.3749 18.2219C19.7119 17.8978 19.9076 17.4541 19.9197 16.9868L18.0803 16.9392ZM18.0996 16.8955C18.1115 16.8841 18.1275 16.8778 18.144 16.878L18.1195 18.7178C18.5869 18.724 19.038 18.5459 19.3749 18.2219L18.0996 16.8955ZM18.1317 16.8779H6.12057V18.7179H18.1317V16.8779ZM6.10839 16.878C6.1181 16.8778 6.12775 16.8796 6.13677 16.8832L5.45514 18.5923C5.67057 18.6782 5.90083 18.7209 6.13275 18.7178L6.10839 16.878ZM6.13677 16.8832C6.1458 16.8868 6.15403 16.8922 6.16099 16.899L4.87714 18.217C5.04329 18.3789 5.2397 18.5064 5.45514 18.5923L6.13677 16.8832ZM6.16099 16.899C6.16796 16.9057 6.17351 16.9138 6.17735 16.9227L4.48679 17.6491C4.57835 17.8622 4.71099 18.0552 4.87714 18.217L6.16099 16.899ZM6.17735 16.9227C6.18118 16.9317 6.18322 16.9413 6.18335 16.951L4.34351 16.975C4.34654 17.207 4.39522 17.436 4.48679 17.6491L6.17735 16.9227ZM6.18343 16.963V14.7367H4.34343V16.963H6.18343Z" fill="#fff" mask="url(#path-1-inside-1_106_12957)"/>
<mask id="path-3-inside-2_106_12957" fill="white">
<path d="M18.5 5H15V1.5"/>
</mask>
<path d="M15 5H14.08V5.92H15V5ZM18.5 4.08H15V5.92H18.5V4.08ZM15.92 5V1.5H14.08V5H15.92Z" fill="#fff" mask="url(#path-3-inside-2_106_12957)"/>
<path d="M10.0946 5.53076H1V14.3026H10.0946V5.53076Z" stroke="#fff" stroke-width="0.92" stroke-miterlimit="10"/>
<path d="M6.99997 12.1318L5.71982 10.7181L4.46193 12.1318H3.05933L5.01852 10.0613L3.14838 8.05762H4.55098L5.76434 9.3823L6.96658 8.05762H8.29125L6.44338 10.0279L8.42483 12.1318H6.99997Z" fill="#fff"/>
<path d="M11.6198 8.32483H17.0966" stroke="#fff" stroke-width="0.92" stroke-miterlimit="10"/>
<path d="M11.6198 11.1968H17.0966" stroke="#fff" stroke-width="0.92" stroke-miterlimit="10"/>
</svg>
