<svg width="17" height="18" viewBox="0 0 17 18" fill="none" xmlns="http://www.w3.org/2000/svg">
<path d="M15.1777 17.5398L15.1777 17.5397H15.1657H0.93674V17.5396L0.930692 17.5397C0.808409 17.5413 0.690415 17.4947 0.602281 17.4099C0.515321 17.3262 0.464343 17.2121 0.46 17.0916V0.908125C0.464343 0.787664 0.515321 0.67352 0.602282 0.589861C0.690415 0.505075 0.808408 0.458432 0.930692 0.46004L0.930691 0.46008H0.93674H12.1481L15.6424 3.77856V17.0951C15.6414 17.1543 15.6287 17.2127 15.6052 17.267C15.5813 17.3221 15.5468 17.3719 15.5035 17.4134L15.8225 17.745L15.5035 17.4135C15.4603 17.4551 15.4092 17.4876 15.3533 17.5093L15.5196 17.9382L15.3533 17.5093C15.2973 17.531 15.2376 17.5414 15.1777 17.5398Z" stroke="#218E38" stroke-width="0.92" stroke-miterlimit="10"/>
<mask id="path-2-inside-1_1069_21476" fill="white">
<path d="M15.5 4H12V0.5"/>
</mask>
<path d="M12 4H11.08V4.92H12V4ZM15.5 3.08H12V4.92H15.5V3.08ZM12.92 4V0.5H11.08V4H12.92Z" fill="#218E38" mask="url(#path-2-inside-1_1069_21476)"/>
<path d="M1.99805 14.25H13.75" stroke="#218E38" stroke-width="0.92" stroke-miterlimit="10"/>
<path d="M6.15027 9.456C6.15027 9.774 6.09727 10.069 5.99127 10.341C5.88527 10.611 5.73627 10.845 5.54427 11.043C5.35227 11.241 5.12127 11.396 4.85127 11.508C4.58127 11.618 4.28227 11.673 3.95427 11.673C3.62627 11.673 3.32627 11.618 3.05427 11.508C2.78427 11.396 2.55227 11.241 2.35827 11.043C2.16627 10.845 2.01727 10.611 1.91127 10.341C1.80527 10.069 1.75227 9.774 1.75227 9.456C1.75227 9.138 1.80527 8.844 1.91127 8.574C2.01727 8.302 2.16627 8.067 2.35827 7.869C2.55227 7.671 2.78427 7.517 3.05427 7.407C3.32627 7.295 3.62627 7.239 3.95427 7.239C4.28227 7.239 4.58127 7.295 4.85127 7.407C5.12127 7.519 5.35227 7.674 5.54427 7.872C5.73627 8.068 5.88527 8.302 5.99127 8.574C6.09727 8.844 6.15027 9.138 6.15027 9.456ZM5.32227 9.456C5.32227 9.218 5.29027 9.005 5.22627 8.817C5.16427 8.627 5.07427 8.466 4.95627 8.334C4.83827 8.202 4.69427 8.101 4.52427 8.031C4.35627 7.961 4.16627 7.926 3.95427 7.926C3.74227 7.926 3.55127 7.961 3.38127 8.031C3.21127 8.101 3.06627 8.202 2.94627 8.334C2.82827 8.466 2.73727 8.627 2.67327 8.817C2.60927 9.005 2.57727 9.218 2.57727 9.456C2.57727 9.694 2.60927 9.908 2.67327 10.098C2.73727 10.286 2.82827 10.446 2.94627 10.578C3.06627 10.708 3.21127 10.808 3.38127 10.878C3.55127 10.948 3.74227 10.983 3.95427 10.983C4.16627 10.983 4.35627 10.948 4.52427 10.878C4.69427 10.808 4.83827 10.708 4.95627 10.578C5.07427 10.446 5.16427 10.286 5.22627 10.098C5.29027 9.908 5.32227 9.694 5.32227 9.456ZM10.6401 9.456C10.6401 9.774 10.5871 10.066 10.4811 10.332C10.3751 10.598 10.2261 10.827 10.0341 11.019C9.8421 11.211 9.6111 11.36 9.3411 11.466C9.0711 11.572 8.7721 11.625 8.4441 11.625H6.7881V7.287H8.4441C8.7721 7.287 9.0711 7.341 9.3411 7.449C9.6111 7.555 9.8421 7.704 10.0341 7.896C10.2261 8.086 10.3751 8.314 10.4811 8.58C10.5871 8.846 10.6401 9.138 10.6401 9.456ZM9.8151 9.456C9.8151 9.218 9.7831 9.005 9.7191 8.817C9.6551 8.627 9.5641 8.467 9.4461 8.337C9.3281 8.205 9.1841 8.104 9.0141 8.034C8.8461 7.964 8.6561 7.929 8.4441 7.929H7.6011V10.983H8.4441C8.6561 10.983 8.8461 10.948 9.0141 10.878C9.1841 10.808 9.3281 10.708 9.4461 10.578C9.5641 10.446 9.6551 10.286 9.7191 10.098C9.7831 9.908 9.8151 9.694 9.8151 9.456ZM13.5955 8.076C13.5735 8.12 13.5475 8.151 13.5175 8.169C13.4895 8.187 13.4555 8.196 13.4155 8.196C13.3755 8.196 13.3305 8.181 13.2805 8.151C13.2305 8.119 13.1715 8.084 13.1035 8.046C13.0355 8.008 12.9555 7.974 12.8635 7.944C12.7735 7.912 12.6665 7.896 12.5425 7.896C12.4305 7.896 12.3325 7.91 12.2485 7.938C12.1665 7.964 12.0965 8.001 12.0385 8.049C11.9825 8.097 11.9405 8.155 11.9125 8.223C11.8845 8.289 11.8705 8.362 11.8705 8.442C11.8705 8.544 11.8985 8.629 11.9545 8.697C12.0125 8.765 12.0885 8.823 12.1825 8.871C12.2765 8.919 12.3835 8.962 12.5035 9C12.6235 9.038 12.7455 9.079 12.8695 9.123C12.9955 9.165 13.1185 9.215 13.2385 9.273C13.3585 9.329 13.4655 9.401 13.5595 9.489C13.6535 9.575 13.7285 9.681 13.7845 9.807C13.8425 9.933 13.8715 10.086 13.8715 10.266C13.8715 10.462 13.8375 10.646 13.7695 10.818C13.7035 10.988 13.6055 11.137 13.4755 11.265C13.3475 11.391 13.1905 11.491 13.0045 11.565C12.8185 11.637 12.6055 11.673 12.3655 11.673C12.2275 11.673 12.0915 11.659 11.9575 11.631C11.8235 11.605 11.6945 11.567 11.5705 11.517C11.4485 11.467 11.3335 11.407 11.2255 11.337C11.1195 11.267 11.0245 11.189 10.9405 11.103L11.1745 10.716C11.1965 10.688 11.2225 10.665 11.2525 10.647C11.2845 10.627 11.3195 10.617 11.3575 10.617C11.4075 10.617 11.4615 10.638 11.5195 10.68C11.5775 10.72 11.6455 10.765 11.7235 10.815C11.8035 10.865 11.8965 10.911 12.0025 10.953C12.1105 10.993 12.2395 11.013 12.3895 11.013C12.6195 11.013 12.7975 10.959 12.9235 10.851C13.0495 10.741 13.1125 10.584 13.1125 10.38C13.1125 10.266 13.0835 10.173 13.0255 10.101C12.9695 10.029 12.8945 9.969 12.8005 9.921C12.7065 9.871 12.5995 9.829 12.4795 9.795C12.3595 9.761 12.2375 9.724 12.1135 9.684C11.9895 9.644 11.8675 9.596 11.7475 9.54C11.6275 9.484 11.5205 9.411 11.4265 9.321C11.3325 9.231 11.2565 9.119 11.1985 8.985C11.1425 8.849 11.1145 8.682 11.1145 8.484C11.1145 8.326 11.1455 8.172 11.2075 8.022C11.2715 7.872 11.3635 7.739 11.4835 7.623C11.6055 7.507 11.7545 7.414 11.9305 7.344C12.1065 7.274 12.3075 7.239 12.5335 7.239C12.7895 7.239 13.0255 7.279 13.2415 7.359C13.4575 7.439 13.6415 7.551 13.7935 7.695L13.5955 8.076Z" fill="#218E38"/>
</svg>
