<svg width="17" height="18" viewBox="0 0 17 18" fill="none" xmlns="http://www.w3.org/2000/svg">
<path d="M15.1777 17.5398L15.1777 17.5397H15.1657H0.93674V17.5396L0.930692 17.5397C0.808409 17.5413 0.690415 17.4947 0.602281 17.4099C0.515321 17.3262 0.464343 17.2121 0.46 17.0916V0.908125C0.464343 0.787664 0.515321 0.67352 0.602282 0.589861C0.690415 0.505075 0.808408 0.458432 0.930692 0.46004L0.930691 0.46008H0.93674H12.1481L15.6424 3.77856V17.0951C15.6414 17.1543 15.6287 17.2127 15.6052 17.267C15.5813 17.3221 15.5468 17.3719 15.5035 17.4134L15.8225 17.745L15.5035 17.4135C15.4603 17.4551 15.4092 17.4876 15.3533 17.5093L15.5196 17.9382L15.3533 17.5093C15.2973 17.531 15.2376 17.5414 15.1777 17.5398Z" stroke="black" stroke-width="0.92" stroke-miterlimit="10"/>
<mask id="path-2-inside-1_1069_21483" fill="white">
<path d="M15.5 4H12V0.5"/>
</mask>
<path d="M12 4H11.08V4.92H12V4ZM15.5 3.08H12V4.92H15.5V3.08ZM12.92 4V0.5H11.08V4H12.92Z" fill="black" mask="url(#path-2-inside-1_1069_21483)"/>
<path d="M1.99805 14.25H13.75" stroke="black" stroke-width="0.92" stroke-miterlimit="10"/>
<path d="M6.15027 9.456C6.15027 9.774 6.09727 10.069 5.99127 10.341C5.88527 10.611 5.73627 10.845 5.54427 11.043C5.35227 11.241 5.12127 11.396 4.85127 11.508C4.58127 11.618 4.28227 11.673 3.95427 11.673C3.62627 11.673 3.32627 11.618 3.05427 11.508C2.78427 11.396 2.55227 11.241 2.35827 11.043C2.16627 10.845 2.01727 10.611 1.91127 10.341C1.80527 10.069 1.75227 9.774 1.75227 9.456C1.75227 9.138 1.80527 8.844 1.91127 8.574C2.01727 8.302 2.16627 8.067 2.35827 7.869C2.55227 7.671 2.78427 7.517 3.05427 7.407C3.32627 7.295 3.62627 7.239 3.95427 7.239C4.28227 7.239 4.58127 7.295 4.85127 7.407C5.12127 7.519 5.35227 7.674 5.54427 7.872C5.73627 8.068 5.88527 8.302 5.99127 8.574C6.09727 8.844 6.15027 9.138 6.15027 9.456ZM5.32227 9.456C5.32227 9.218 5.29027 9.005 5.22627 8.817C5.16427 8.627 5.07427 8.466 4.95627 8.334C4.83827 8.202 4.69427 8.101 4.52427 8.031C4.35627 7.961 4.16627 7.926 3.95427 7.926C3.74227 7.926 3.55127 7.961 3.38127 8.031C3.21127 8.101 3.06627 8.202 2.94627 8.334C2.82827 8.466 2.73727 8.627 2.67327 8.817C2.60927 9.005 2.57727 9.218 2.57727 9.456C2.57727 9.694 2.60927 9.908 2.67327 10.098C2.73727 10.286 2.82827 10.446 2.94627 10.578C3.06627 10.708 3.21127 10.808 3.38127 10.878C3.55127 10.948 3.74227 10.983 3.95427 10.983C4.16627 10.983 4.35627 10.948 4.52427 10.878C4.69427 10.808 4.83827 10.708 4.95627 10.578C5.07427 10.446 5.16427 10.286 5.22627 10.098C5.29027 9.908 5.32227 9.694 5.32227 9.456ZM10.6401 9.456C10.6401 9.774 10.5871 10.066 10.4811 10.332C10.3751 10.598 10.2261 10.827 10.0341 11.019C9.8421 11.211 9.6111 11.36 9.3411 11.466C9.0711 11.572 8.7721 11.625 8.4441 11.625H6.7881V7.287H8.4441C8.7721 7.287 9.0711 7.341 9.3411 7.449C9.6111 7.555 9.8421 7.704 10.0341 7.896C10.2261 8.086 10.3751 8.314 10.4811 8.58C10.5871 8.846 10.6401 9.138 10.6401 9.456ZM9.8151 9.456C9.8151 9.218 9.7831 9.005 9.7191 8.817C9.6551 8.627 9.5641 8.467 9.4461 8.337C9.3281 8.205 9.1841 8.104 9.0141 8.034C8.8461 7.964 8.6561 7.929 8.4441 7.929H7.6011V10.983H8.4441C8.6561 10.983 8.8461 10.948 9.0141 10.878C9.1841 10.808 9.3281 10.708 9.4461 10.578C9.5641 10.446 9.6551 10.286 9.7191 10.098C9.7831 9.908 9.8151 9.694 9.8151 9.456ZM14.0931 7.287V7.95H12.7881V11.625H11.9811V7.95H10.6701V7.287H14.0931Z" fill="black"/>
</svg>
