<svg width="16" height="19" viewBox="0 0 16 19" fill="none" xmlns="http://www.w3.org/2000/svg">
<g id="icon-pdf">
<path id="Vector" d="M14.6118 17.7599L14.6118 17.7597H14.5998H1.53706V17.7597L1.528 17.7598C1.41688 17.7618 1.30949 17.7198 1.22929 17.6429C1.15023 17.5671 1.10392 17.4634 1.1001 17.3541V1.16583C1.10392 1.05648 1.15023 0.952854 1.22929 0.877032C1.30949 0.800111 1.41688 0.758064 1.528 0.760079L1.52799 0.760161H1.53706H11.5314L15.0422 4.03891V17.3541C15.0404 17.4077 15.0282 17.4605 15.0065 17.5096C14.9842 17.5601 14.9521 17.6057 14.9121 17.6438C14.8722 17.682 14.8251 17.7118 14.7735 17.7317C14.722 17.7517 14.667 17.7612 14.6118 17.7599Z" stroke="#ED1C24" stroke-miterlimit="10"/>
<g id="Vector_2">
<mask id="path-2-inside-1_1257_1983" fill="white">
<path d="M15.1001 4.26001H11.1001V0.76001"/>
</mask>
<path d="M11.1001 4.26001H10.1001V5.26001H11.1001V4.26001ZM15.1001 3.26001H11.1001V5.26001H15.1001V3.26001ZM12.1001 4.26001V0.76001H10.1001V4.26001H12.1001Z" fill="#ED1C24" mask="url(#path-2-inside-1_1257_1983)"/>
</g>
<path id="Vector_3" d="M4.21094 14.7037C4.21094 14.7037 4.24929 15.3502 4.95613 15.1146C5.66296 14.879 6.98896 12.0517 7.44922 10.5449C7.89303 9.17611 8.2373 7.77706 8.47933 6.35866C8.52865 5.64635 8.04647 5.55868 7.88209 5.5806C7.71771 5.60251 7.15882 5.8436 7.4273 6.80249C7.69026 7.73859 8.08704 8.63181 8.60536 9.45448C9.14209 10.3712 9.80417 11.2085 10.5724 11.9421C10.7762 12.1582 11.027 12.3246 11.3054 12.4281C11.5839 12.5317 11.8824 12.5698 12.1779 12.5393C12.797 12.4243 12.9998 11.3832 11.8875 11.3832C10.7402 11.4078 9.60355 11.6092 8.51769 11.9804C7.23789 12.3474 6.0193 12.9013 4.90133 13.6242C4.34244 14.1064 4.21094 14.3914 4.21094 14.7037Z" stroke="#ED1C24" stroke-width="0.75" stroke-miterlimit="10"/>
</g>
</svg>
