<svg width="15" height="18" viewBox="0 0 15 18" fill="none" xmlns="http://www.w3.org/2000/svg">
<path d="M14.0172 17.4999L14.0172 17.4997H14.0052H0.942444V17.4996L0.930402 17.4999C0.875174 17.5012 0.820224 17.4916 0.768691 17.4717C0.717157 17.4518 0.670056 17.4219 0.630077 17.3838C0.590093 17.3457 0.558015 17.3001 0.535672 17.2496C0.513969 17.2005 0.501866 17.1477 0.5 17.0941V0.907529C0.50477 0.797616 0.551894 0.693716 0.631629 0.61769C0.712799 0.540295 0.821216 0.498031 0.933352 0.500071L0.93335 0.500153H0.942444H10.9366L14.4421 3.77869V17.0958C14.4407 17.1493 14.429 17.2021 14.4075 17.2511C14.3856 17.3013 14.354 17.3466 14.3145 17.3845L14.6606 17.7454L14.3145 17.3845C14.275 17.4224 14.2284 17.4521 14.1774 17.4719C14.1264 17.4917 14.0719 17.5012 14.0172 17.4999Z" stroke="#fff" stroke-miterlimit="10"/>
<mask id="path-2-inside-1_106_12966" fill="white">
<path d="M14.5 4H10.5V0.5"/>
</mask>
<path d="M10.5 4H9.5V5H10.5V4ZM14.5 3H10.5V5H14.5V3ZM11.5 4V0.5H9.5V4H11.5Z" fill="#fff" mask="url(#path-2-inside-1_106_12966)"/>
<path d="M3.23355 9.25108V10.7781H2.42655V6.44008H3.83955C4.12955 6.44008 4.38055 6.47408 4.59255 6.54208C4.80455 6.61008 4.97955 6.70508 5.11755 6.82708C5.25555 6.94908 5.35755 7.09508 5.42355 7.26508C5.48955 7.43508 5.52255 7.62108 5.52255 7.82308C5.52255 8.03308 5.48755 8.22608 5.41755 8.40208C5.34755 8.57608 5.24255 8.72608 5.10255 8.85208C4.96255 8.97808 4.78755 9.07608 4.57755 9.14608C4.36755 9.21608 4.12155 9.25108 3.83955 9.25108H3.23355ZM3.23355 8.62108H3.83955C3.98755 8.62108 4.11655 8.60308 4.22655 8.56708C4.33655 8.52908 4.42755 8.47608 4.49955 8.40808C4.57155 8.33808 4.62555 8.25408 4.66155 8.15608C4.69755 8.05608 4.71555 7.94508 4.71555 7.82308C4.71555 7.70708 4.69755 7.60208 4.66155 7.50808C4.62555 7.41408 4.57155 7.33408 4.49955 7.26808C4.42755 7.20208 4.33655 7.15208 4.22655 7.11808C4.11655 7.08208 3.98755 7.06408 3.83955 7.06408H3.23355V8.62108ZM6.98355 9.25108V10.7781H6.17655V6.44008H7.58955C7.87955 6.44008 8.13055 6.47408 8.34255 6.54208C8.55455 6.61008 8.72955 6.70508 8.86755 6.82708C9.00555 6.94908 9.10755 7.09508 9.17355 7.26508C9.23955 7.43508 9.27255 7.62108 9.27255 7.82308C9.27255 8.03308 9.23755 8.22608 9.16755 8.40208C9.09755 8.57608 8.99255 8.72608 8.85255 8.85208C8.71255 8.97808 8.53755 9.07608 8.32755 9.14608C8.11755 9.21608 7.87155 9.25108 7.58955 9.25108H6.98355ZM6.98355 8.62108H7.58955C7.73755 8.62108 7.86655 8.60308 7.97655 8.56708C8.08655 8.52908 8.17755 8.47608 8.24955 8.40808C8.32155 8.33808 8.37555 8.25408 8.41155 8.15608C8.44755 8.05608 8.46555 7.94508 8.46555 7.82308C8.46555 7.70708 8.44755 7.60208 8.41155 7.50808C8.37555 7.41408 8.32155 7.33408 8.24955 7.26808C8.17755 7.20208 8.08655 7.15208 7.97655 7.11808C7.86655 7.08208 7.73755 7.06408 7.58955 7.06408H6.98355V8.62108ZM12.9565 6.44008V7.10308H11.6515V10.7781H10.8445V7.10308H9.53355V6.44008H12.9565Z" fill="#fff"/>
</svg>
