<svg width="17" height="18" viewBox="0 0 17 18" fill="none" xmlns="http://www.w3.org/2000/svg">
<path d="M15.1777 17.5398L15.1777 17.5397H15.1657H0.93674V17.5396L0.930692 17.5397C0.808409 17.5413 0.690415 17.4947 0.602281 17.4099C0.515321 17.3262 0.464343 17.2121 0.46 17.0916V0.908125C0.464343 0.787664 0.515321 0.67352 0.602282 0.589861C0.690415 0.505075 0.808408 0.458432 0.930692 0.46004L0.930691 0.46008H0.93674H12.1481L15.6424 3.77856V17.0951C15.6414 17.1543 15.6287 17.2127 15.6052 17.267C15.5813 17.3221 15.5468 17.3719 15.5035 17.4134L15.8225 17.745L15.5035 17.4135C15.4603 17.4551 15.4092 17.4876 15.3533 17.5093L15.5196 17.9382L15.3533 17.5093C15.2973 17.531 15.2376 17.5414 15.1777 17.5398Z" stroke="black" stroke-width="0.92" stroke-miterlimit="10"/>
<mask id="path-2-inside-1_106_12948" fill="white">
<path d="M15.5 4H12V0.5"/>
</mask>
<path d="M12 4H11.08V4.92H12V4ZM15.5 3.08H12V4.92H15.5V3.08ZM12.92 4V0.5H11.08V4H12.92Z" fill="black" mask="url(#path-2-inside-1_106_12948)"/>
<path d="M3.68783 7.65997H2.32422V6.74695H6.02374V7.65997H4.67199V11.5611H3.68783V7.65997Z" fill="black"/>
<path d="M9.04732 11.5611L8.05129 9.88919L7.04341 11.5611H5.85767L7.45842 9.1066L5.96438 6.73511H7.07898L8.05129 8.31215L8.99989 6.74697H10.0671L8.58488 9.11845L10.1738 11.6085L9.04732 11.5611Z" fill="black"/>
<path d="M11.3951 7.65997H10.0433V6.74695H13.7429V7.65997H12.3793V11.5611H11.3951V7.65997Z" fill="black"/>
<path d="M2.96436 14.2289H12.7349" stroke="black" stroke-width="0.92" stroke-miterlimit="10"/>
</svg>
