<svg id="Layer_1" data-name="Layer 1" xmlns="http://www.w3.org/2000/svg" width="1920" height="95" viewBox="0 0 1920 95"><defs><style>.cls-1{opacity:0.05;}.cls-2{fill:#123a3a;}</style></defs><g class="cls-1"><polygon class="cls-2" points="57.587 69.813 67.105 69.813 37.631 26.799 8.158 69.813 17.676 69.813 37.631 40.69 57.587 69.813"/><polygon class="cls-2" points="0 26.799 0 69.813 29.473 26.799 0 26.799"/><polygon class="cls-2" points="37.631 52.843 26.003 69.813 49.259 69.813 37.631 52.843"/><polygon class="cls-2" points="92.938 69.813 112.894 40.69 132.85 69.813 142.367 69.813 112.894 26.799 83.421 69.813 92.938 69.813"/><polygon class="cls-2" points="104.736 26.799 45.789 26.799 75.263 69.813 104.736 26.799"/><polygon class="cls-2" points="101.266 69.813 124.522 69.813 112.894 52.843 101.266 69.813"/><polygon class="cls-2" points="121.052 18.862 196.314 18.862 271.577 18.862 346.84 18.862 422.102 18.862 497.365 18.862 526.838 18.862 526.838 12.288 497.365 12.288 422.102 12.288 346.84 12.288 271.577 12.288 196.314 12.288 121.052 12.288 45.789 12.288 0 12.288 0 18.862 45.789 18.862 121.052 18.862"/><polygon class="cls-2" points="121.052 6.957 196.314 6.957 271.577 6.957 346.84 6.957 422.102 6.957 497.365 6.957 526.838 6.957 526.838 0.382 497.365 0.382 422.102 0.382 346.84 0.382 271.577 0.382 196.314 0.382 121.052 0.382 45.789 0.382 0 0.382 0 6.957 45.789 6.957 121.052 6.957"/><polygon class="cls-2" points="168.201 69.813 188.157 40.69 208.112 69.813 217.63 69.813 188.157 26.799 158.683 69.813 168.201 69.813"/><polygon class="cls-2" points="179.999 26.799 121.052 26.799 150.525 69.813 179.999 26.799"/><polygon class="cls-2" points="176.529 69.813 199.784 69.813 188.157 52.843 176.529 69.813"/><polygon class="cls-2" points="243.463 69.813 263.419 40.69 283.375 69.813 292.892 69.813 263.419 26.799 233.946 69.813 243.463 69.813"/><polygon class="cls-2" points="255.261 26.799 196.314 26.799 225.788 69.813 255.261 26.799"/><polygon class="cls-2" points="251.791 69.813 275.047 69.813 263.419 52.843 251.791 69.813"/><polygon class="cls-2" points="318.726 69.813 338.682 40.69 358.638 69.813 368.155 69.813 338.682 26.799 309.208 69.813 318.726 69.813"/><polygon class="cls-2" points="330.524 26.799 271.577 26.799 301.05 69.813 330.524 26.799"/><polygon class="cls-2" points="327.054 69.813 350.31 69.813 338.682 52.843 327.054 69.813"/><polygon class="cls-2" points="393.989 69.813 413.944 40.69 433.9 69.813 443.418 69.813 413.944 26.799 384.471 69.813 393.989 69.813"/><polygon class="cls-2" points="405.786 26.799 346.84 26.799 376.313 69.813 405.786 26.799"/><polygon class="cls-2" points="402.317 69.813 425.572 69.813 413.944 52.843 402.317 69.813"/><polygon class="cls-2" points="469.251 69.813 489.207 40.69 509.163 69.813 518.68 69.813 489.207 26.799 459.734 69.813 469.251 69.813"/><polygon class="cls-2" points="481.049 26.799 422.102 26.799 451.576 69.813 481.049 26.799"/><polygon class="cls-2" points="477.579 69.813 500.835 69.813 489.207 52.843 477.579 69.813"/><polygon class="cls-2" points="121.052 94.618 196.314 94.618 271.577 94.618 346.84 94.618 422.102 94.618 497.365 94.618 526.838 94.618 526.838 77.75 497.365 77.75 422.102 77.75 346.84 77.75 271.577 77.75 196.314 77.75 121.052 77.75 45.789 77.75 0 77.75 0 94.618 45.789 94.618 121.052 94.618"/><polygon class="cls-2" points="526.838 69.813 526.838 26.799 497.365 26.799 526.838 69.813"/></g><g class="cls-1"><polygon class="cls-2" points="584.108 69.813 593.626 69.813 564.152 26.799 534.679 69.813 544.197 69.813 564.152 40.69 584.108 69.813"/><polygon class="cls-2" points="526.521 26.799 526.521 69.813 555.994 26.799 526.521 26.799"/><polygon class="cls-2" points="564.152 52.843 552.524 69.813 575.78 69.813 564.152 52.843"/><polygon class="cls-2" points="619.459 69.813 639.415 40.69 659.371 69.813 668.888 69.813 639.415 26.799 609.942 69.813 619.459 69.813"/><polygon class="cls-2" points="631.257 26.799 572.31 26.799 601.784 69.813 631.257 26.799"/><polygon class="cls-2" points="627.787 69.813 651.043 69.813 639.415 52.843 627.787 69.813"/><polygon class="cls-2" points="647.573 18.862 722.835 18.862 798.098 18.862 873.361 18.862 948.623 18.862 1023.886 18.862 1053.359 18.862 1053.359 12.288 1023.886 12.288 948.623 12.288 873.361 12.288 798.098 12.288 722.835 12.288 647.573 12.288 572.31 12.288 526.521 12.288 526.521 18.862 572.31 18.862 647.573 18.862"/><polygon class="cls-2" points="647.573 6.957 722.835 6.957 798.098 6.957 873.361 6.957 948.623 6.957 1023.886 6.957 1053.359 6.957 1053.359 0.382 1023.886 0.382 948.623 0.382 873.361 0.382 798.098 0.382 722.835 0.382 647.573 0.382 572.31 0.382 526.521 0.382 526.521 6.957 572.31 6.957 647.573 6.957"/><polygon class="cls-2" points="694.722 69.813 714.678 40.69 734.633 69.813 744.151 69.813 714.678 26.799 685.204 69.813 694.722 69.813"/><polygon class="cls-2" points="706.52 26.799 647.573 26.799 677.046 69.813 706.52 26.799"/><polygon class="cls-2" points="703.05 69.813 726.305 69.813 714.678 52.843 703.05 69.813"/><polygon class="cls-2" points="769.984 69.813 789.94 40.69 809.896 69.813 819.413 69.813 789.94 26.799 760.467 69.813 769.984 69.813"/><polygon class="cls-2" points="781.782 26.799 722.835 26.799 752.309 69.813 781.782 26.799"/><polygon class="cls-2" points="778.312 69.813 801.568 69.813 789.94 52.843 778.312 69.813"/><polygon class="cls-2" points="845.247 69.813 865.203 40.69 885.159 69.813 894.676 69.813 865.203 26.799 835.729 69.813 845.247 69.813"/><polygon class="cls-2" points="857.045 26.799 798.098 26.799 827.571 69.813 857.045 26.799"/><polygon class="cls-2" points="853.575 69.813 876.831 69.813 865.203 52.843 853.575 69.813"/><polygon class="cls-2" points="920.51 69.813 940.465 40.69 960.421 69.813 969.939 69.813 940.465 26.799 910.992 69.813 920.51 69.813"/><polygon class="cls-2" points="932.307 26.799 873.361 26.799 902.834 69.813 932.307 26.799"/><polygon class="cls-2" points="928.838 69.813 952.093 69.813 940.465 52.843 928.838 69.813"/><polygon class="cls-2" points="995.772 69.813 1015.728 40.69 1035.684 69.813 1045.201 69.813 1015.728 26.799 986.255 69.813 995.772 69.813"/><polygon class="cls-2" points="1007.57 26.799 948.623 26.799 978.097 69.813 1007.57 26.799"/><polygon class="cls-2" points="1004.1 69.813 1027.356 69.813 1015.728 52.843 1004.1 69.813"/><polygon class="cls-2" points="647.573 94.618 722.835 94.618 798.098 94.618 873.361 94.618 948.623 94.618 1023.886 94.618 1053.359 94.618 1053.359 77.75 1023.886 77.75 948.623 77.75 873.361 77.75 798.098 77.75 722.835 77.75 647.573 77.75 572.31 77.75 526.521 77.75 526.521 94.618 572.31 94.618 647.573 94.618"/><polygon class="cls-2" points="1053.359 69.813 1053.359 26.799 1023.886 26.799 1053.359 69.813"/></g><g class="cls-1"><polygon class="cls-2" points="1111.362 69.813 1120.879 69.813 1091.406 26.799 1061.933 69.813 1071.45 69.813 1091.406 40.69 1111.362 69.813"/><polygon class="cls-2" points="1053.775 26.799 1053.775 69.813 1083.248 26.799 1053.775 26.799"/><polygon class="cls-2" points="1091.406 52.843 1079.778 69.813 1103.034 69.813 1091.406 52.843"/><polygon class="cls-2" points="1146.713 69.813 1166.669 40.69 1186.624 69.813 1196.142 69.813 1166.669 26.799 1137.195 69.813 1146.713 69.813"/><polygon class="cls-2" points="1158.511 26.799 1099.564 26.799 1129.037 69.813 1158.511 26.799"/><polygon class="cls-2" points="1155.041 69.813 1178.296 69.813 1166.669 52.843 1155.041 69.813"/><polygon class="cls-2" points="1174.826 18.862 1250.089 18.862 1325.352 18.862 1400.614 18.862 1475.877 18.862 1551.14 18.862 1580.613 18.862 1580.613 12.288 1551.14 12.288 1475.877 12.288 1400.614 12.288 1325.352 12.288 1250.089 12.288 1174.826 12.288 1099.564 12.288 1053.775 12.288 1053.775 18.862 1099.564 18.862 1174.826 18.862"/><polygon class="cls-2" points="1174.826 6.957 1250.089 6.957 1325.352 6.957 1400.614 6.957 1475.877 6.957 1551.14 6.957 1580.613 6.957 1580.613 0.382 1551.14 0.382 1475.877 0.382 1400.614 0.382 1325.352 0.382 1250.089 0.382 1174.826 0.382 1099.564 0.382 1053.775 0.382 1053.775 6.957 1099.564 6.957 1174.826 6.957"/><polygon class="cls-2" points="1221.975 69.813 1241.931 40.69 1261.887 69.813 1271.404 69.813 1241.931 26.799 1212.458 69.813 1221.975 69.813"/><polygon class="cls-2" points="1233.773 26.799 1174.826 26.799 1204.3 69.813 1233.773 26.799"/><polygon class="cls-2" points="1230.303 69.813 1253.559 69.813 1241.931 52.843 1230.303 69.813"/><polygon class="cls-2" points="1297.238 69.813 1317.194 40.69 1337.15 69.813 1346.667 69.813 1317.194 26.799 1287.72 69.813 1297.238 69.813"/><polygon class="cls-2" points="1309.036 26.799 1250.089 26.799 1279.562 69.813 1309.036 26.799"/><polygon class="cls-2" points="1305.566 69.813 1328.822 69.813 1317.194 52.843 1305.566 69.813"/><polygon class="cls-2" points="1372.501 69.813 1392.456 40.69 1412.412 69.813 1421.93 69.813 1392.456 26.799 1362.983 69.813 1372.501 69.813"/><polygon class="cls-2" points="1384.298 26.799 1325.352 26.799 1354.825 69.813 1384.298 26.799"/><polygon class="cls-2" points="1380.829 69.813 1404.084 69.813 1392.456 52.843 1380.829 69.813"/><polygon class="cls-2" points="1447.763 69.813 1467.719 40.69 1487.675 69.813 1497.192 69.813 1467.719 26.799 1438.246 69.813 1447.763 69.813"/><polygon class="cls-2" points="1459.561 26.799 1400.614 26.799 1430.088 69.813 1459.561 26.799"/><polygon class="cls-2" points="1456.091 69.813 1479.347 69.813 1467.719 52.843 1456.091 69.813"/><polygon class="cls-2" points="1523.026 69.813 1542.982 40.69 1562.937 69.813 1572.455 69.813 1542.982 26.799 1513.508 69.813 1523.026 69.813"/><polygon class="cls-2" points="1534.824 26.799 1475.877 26.799 1505.35 69.813 1534.824 26.799"/><polygon class="cls-2" points="1531.354 69.813 1554.609 69.813 1542.982 52.843 1531.354 69.813"/><polygon class="cls-2" points="1174.826 94.618 1250.089 94.618 1325.352 94.618 1400.614 94.618 1475.877 94.618 1551.14 94.618 1580.613 94.618 1580.613 77.75 1551.14 77.75 1475.877 77.75 1400.614 77.75 1325.352 77.75 1250.089 77.75 1174.826 77.75 1099.564 77.75 1053.775 77.75 1053.775 94.618 1099.564 94.618 1174.826 94.618"/><polygon class="cls-2" points="1580.613 69.813 1580.613 26.799 1551.14 26.799 1580.613 69.813"/></g><g class="cls-1"><polygon class="cls-2" points="1638.2 69.813 1647.718 69.813 1618.244 26.799 1588.771 69.813 1598.288 69.813 1618.244 40.69 1638.2 69.813"/><polygon class="cls-2" points="1580.613 26.799 1580.613 69.813 1610.086 26.799 1580.613 26.799"/><polygon class="cls-2" points="1618.244 52.843 1606.616 69.813 1629.872 69.813 1618.244 52.843"/><polygon class="cls-2" points="1673.551 69.813 1693.507 40.69 1713.463 69.813 1722.98 69.813 1693.507 26.799 1664.033 69.813 1673.551 69.813"/><polygon class="cls-2" points="1685.349 26.799 1626.402 26.799 1655.876 69.813 1685.349 26.799"/><polygon class="cls-2" points="1681.879 69.813 1705.135 69.813 1693.507 52.843 1681.879 69.813"/><polygon class="cls-2" points="1701.665 18.862 1776.927 18.862 1852.19 18.862 1927.453 18.862 2002.715 18.862 2077.978 18.862 2107.451 18.862 2107.451 12.288 2077.978 12.288 2002.715 12.288 1927.453 12.288 1852.19 12.288 1776.927 12.288 1701.665 12.288 1626.402 12.288 1580.613 12.288 1580.613 18.862 1626.402 18.862 1701.665 18.862"/><polygon class="cls-2" points="1701.665 6.957 1776.927 6.957 1852.19 6.957 1927.453 6.957 2002.715 6.957 2077.978 6.957 2107.451 6.957 2107.451 0.382 2077.978 0.382 2002.715 0.382 1927.453 0.382 1852.19 0.382 1776.927 0.382 1701.665 0.382 1626.402 0.382 1580.613 0.382 1580.613 6.957 1626.402 6.957 1701.665 6.957"/><polygon class="cls-2" points="1748.814 69.813 1768.769 40.69 1788.725 69.813 1798.243 69.813 1768.769 26.799 1739.296 69.813 1748.814 69.813"/><polygon class="cls-2" points="1760.611 26.799 1701.665 26.799 1731.138 69.813 1760.611 26.799"/><polygon class="cls-2" points="1757.142 69.813 1780.397 69.813 1768.769 52.843 1757.142 69.813"/><polygon class="cls-2" points="1824.076 69.813 1844.032 40.69 1863.988 69.813 1873.505 69.813 1844.032 26.799 1814.559 69.813 1824.076 69.813"/><polygon class="cls-2" points="1835.874 26.799 1776.927 26.799 1806.401 69.813 1835.874 26.799"/><polygon class="cls-2" points="1832.404 69.813 1855.66 69.813 1844.032 52.843 1832.404 69.813"/><polygon class="cls-2" points="1899.339 69.813 1919.295 40.69 1939.25 69.813 1948.768 69.813 1919.295 26.799 1889.821 69.813 1899.339 69.813"/><polygon class="cls-2" points="1911.137 26.799 1852.19 26.799 1881.663 69.813 1911.137 26.799"/><polygon class="cls-2" points="1907.667 69.813 1930.922 69.813 1919.295 52.843 1907.667 69.813"/><polygon class="cls-2" points="1701.665 94.618 1776.927 94.618 1852.19 94.618 1927.453 94.618 2002.715 94.618 2077.978 94.618 2107.451 94.618 2107.451 77.75 2077.978 77.75 2002.715 77.75 1927.453 77.75 1852.19 77.75 1776.927 77.75 1701.665 77.75 1626.402 77.75 1580.613 77.75 1580.613 94.618 1626.402 94.618 1701.665 94.618"/></g></svg>