<svg id="Layer_1" data-name="Layer 1" xmlns="http://www.w3.org/2000/svg" width="1920" height="52" viewBox="0 0 1920 52"><defs><style>.cls-1{opacity:0.05;}.cls-2{fill:#123a3a;}</style></defs><g class="cls-1"><polygon class="cls-2" points="1227.604 51.961 1234.721 51.961 1212.681 19.794 1190.64 51.961 1197.757 51.961 1212.681 30.182 1227.604 51.961"/><polygon class="cls-2" points="1184.539 19.794 1184.539 51.961 1206.58 19.794 1184.539 19.794"/><polygon class="cls-2" points="1212.681 39.27 1203.985 51.961 1221.376 51.961 1212.681 39.27"/><polygon class="cls-2" points="1254.04 51.961 1268.963 30.182 1283.886 51.961 1291.004 51.961 1268.963 19.794 1246.923 51.961 1254.04 51.961"/><polygon class="cls-2" points="1262.863 19.794 1218.781 19.794 1240.822 51.961 1262.863 19.794"/><polygon class="cls-2" points="1260.268 51.961 1277.659 51.961 1268.963 39.27 1260.268 51.961"/><polygon class="cls-2" points="1275.064 13.859 1331.346 13.859 1387.629 13.859 1443.912 13.859 1500.194 13.859 1556.477 13.859 1578.517 13.859 1578.517 8.943 1556.477 8.943 1500.194 8.943 1443.912 8.943 1387.629 8.943 1331.346 8.943 1275.064 8.943 1218.781 8.943 1184.539 8.943 1184.539 13.859 1218.781 13.859 1275.064 13.859"/><polygon class="cls-2" points="1275.064 4.956 1331.346 4.956 1387.629 4.956 1443.912 4.956 1500.194 4.956 1556.477 4.956 1578.517 4.956 1578.517 0.039 1556.477 0.039 1500.194 0.039 1443.912 0.039 1387.629 0.039 1331.346 0.039 1275.064 0.039 1218.781 0.039 1184.539 0.039 1184.539 4.956 1218.781 4.956 1275.064 4.956"/><polygon class="cls-2" points="1310.323 51.961 1325.246 30.182 1340.169 51.961 1347.286 51.961 1325.246 19.794 1303.205 51.961 1310.323 51.961"/><polygon class="cls-2" points="1319.145 19.794 1275.064 19.794 1297.104 51.961 1319.145 19.794"/><polygon class="cls-2" points="1316.55 51.961 1333.941 51.961 1325.246 39.27 1316.55 51.961"/><polygon class="cls-2" points="1366.605 51.961 1381.528 30.182 1396.452 51.961 1403.569 51.961 1381.528 19.794 1359.488 51.961 1366.605 51.961"/><polygon class="cls-2" points="1375.428 19.794 1331.346 19.794 1353.387 51.961 1375.428 19.794"/><polygon class="cls-2" points="1372.833 51.961 1390.224 51.961 1381.528 39.27 1372.833 51.961"/><polygon class="cls-2" points="1422.888 51.961 1437.811 30.182 1452.734 51.961 1459.852 51.961 1437.811 19.794 1415.77 51.961 1422.888 51.961"/><polygon class="cls-2" points="1431.71 19.794 1387.629 19.794 1409.67 51.961 1431.71 19.794"/><polygon class="cls-2" points="1429.115 51.961 1446.506 51.961 1437.811 39.27 1429.115 51.961"/><polygon class="cls-2" points="1479.17 51.961 1494.093 30.182 1509.017 51.961 1516.134 51.961 1494.093 19.794 1472.053 51.961 1479.17 51.961"/><polygon class="cls-2" points="1487.993 19.794 1443.912 19.794 1465.952 51.961 1487.993 19.794"/><polygon class="cls-2" points="1485.398 51.961 1502.789 51.961 1494.093 39.27 1485.398 51.961"/><polygon class="cls-2" points="1535.453 51.961 1550.376 30.182 1565.299 51.961 1572.417 51.961 1550.376 19.794 1528.335 51.961 1535.453 51.961"/><polygon class="cls-2" points="1544.275 19.794 1500.194 19.794 1522.235 51.961 1544.275 19.794"/><polygon class="cls-2" points="1541.681 51.961 1559.072 51.961 1550.376 39.27 1541.681 51.961"/><polygon class="cls-2" points="1578.517 51.961 1578.517 19.794 1556.477 19.794 1578.517 51.961"/></g><g class="cls-1"><polygon class="cls-2" points="1621.582 51.961 1628.699 51.961 1606.659 19.794 1584.618 51.961 1591.735 51.961 1606.659 30.182 1621.582 51.961"/><polygon class="cls-2" points="1578.517 19.794 1578.517 51.961 1600.558 19.794 1578.517 19.794"/><polygon class="cls-2" points="1606.659 39.27 1597.963 51.961 1615.354 51.961 1606.659 39.27"/><polygon class="cls-2" points="1648.018 51.961 1662.941 30.182 1677.864 51.961 1684.982 51.961 1662.941 19.794 1640.9 51.961 1648.018 51.961"/><polygon class="cls-2" points="1656.84 19.794 1612.759 19.794 1634.8 51.961 1656.84 19.794"/><polygon class="cls-2" points="1654.246 51.961 1671.637 51.961 1662.941 39.27 1654.246 51.961"/><polygon class="cls-2" points="1669.042 13.859 1725.324 13.859 1781.607 13.859 1837.889 13.859 1894.172 13.859 1950.455 13.859 1972.495 13.859 1972.495 8.943 1950.455 8.943 1894.172 8.943 1837.889 8.943 1781.607 8.943 1725.324 8.943 1669.042 8.943 1612.759 8.943 1578.517 8.943 1578.517 13.859 1612.759 13.859 1669.042 13.859"/><polygon class="cls-2" points="1669.042 4.956 1725.324 4.956 1781.607 4.956 1837.889 4.956 1894.172 4.956 1950.455 4.956 1972.495 4.956 1972.495 0.039 1950.455 0.039 1894.172 0.039 1837.889 0.039 1781.607 0.039 1725.324 0.039 1669.042 0.039 1612.759 0.039 1578.517 0.039 1578.517 4.956 1612.759 4.956 1669.042 4.956"/><polygon class="cls-2" points="1704.301 51.961 1719.224 30.182 1734.147 51.961 1741.264 51.961 1719.224 19.794 1697.183 51.961 1704.301 51.961"/><polygon class="cls-2" points="1713.123 19.794 1669.042 19.794 1691.082 51.961 1713.123 19.794"/><polygon class="cls-2" points="1710.528 51.961 1727.919 51.961 1719.224 39.27 1710.528 51.961"/><polygon class="cls-2" points="1760.583 51.961 1775.506 30.182 1790.43 51.961 1797.547 51.961 1775.506 19.794 1753.466 51.961 1760.583 51.961"/><polygon class="cls-2" points="1769.406 19.794 1725.324 19.794 1747.365 51.961 1769.406 19.794"/><polygon class="cls-2" points="1766.811 51.961 1784.202 51.961 1775.506 39.27 1766.811 51.961"/><polygon class="cls-2" points="1816.866 51.961 1831.789 30.182 1846.712 51.961 1853.829 51.961 1831.789 19.794 1809.748 51.961 1816.866 51.961"/><polygon class="cls-2" points="1825.688 19.794 1781.607 19.794 1803.648 51.961 1825.688 19.794"/><polygon class="cls-2" points="1823.093 51.961 1840.484 51.961 1831.789 39.27 1823.093 51.961"/><polygon class="cls-2" points="1873.148 51.961 1888.071 30.182 1902.995 51.961 1910.112 51.961 1888.071 19.794 1866.031 51.961 1873.148 51.961"/><polygon class="cls-2" points="1881.971 19.794 1837.889 19.794 1859.93 51.961 1881.971 19.794"/><polygon class="cls-2" points="1879.376 51.961 1896.767 51.961 1888.071 39.27 1879.376 51.961"/><polygon class="cls-2" points="1938.253 19.794 1894.172 19.794 1916.213 51.961 1938.253 19.794"/></g><g class="cls-1"><polygon class="cls-2" points="832.775 51.961 839.893 51.961 817.852 19.794 795.811 51.961 802.929 51.961 817.852 30.182 832.775 51.961"/><polygon class="cls-2" points="789.711 19.794 789.711 51.961 811.751 19.794 789.711 19.794"/><polygon class="cls-2" points="817.852 39.27 809.157 51.961 826.547 51.961 817.852 39.27"/><polygon class="cls-2" points="859.211 51.961 874.135 30.182 889.058 51.961 896.175 51.961 874.135 19.794 852.094 51.961 859.211 51.961"/><polygon class="cls-2" points="868.034 19.794 823.953 19.794 845.993 51.961 868.034 19.794"/><polygon class="cls-2" points="865.439 51.961 882.83 51.961 874.135 39.27 865.439 51.961"/><polygon class="cls-2" points="880.235 13.859 936.518 13.859 992.8 13.859 1049.083 13.859 1105.366 13.859 1161.648 13.859 1183.689 13.859 1183.689 8.943 1161.648 8.943 1105.366 8.943 1049.083 8.943 992.8 8.943 936.518 8.943 880.235 8.943 823.953 8.943 789.711 8.943 789.711 13.859 823.953 13.859 880.235 13.859"/><polygon class="cls-2" points="880.235 4.956 936.518 4.956 992.8 4.956 1049.083 4.956 1105.366 4.956 1161.648 4.956 1183.689 4.956 1183.689 0.039 1161.648 0.039 1105.366 0.039 1049.083 0.039 992.8 0.039 936.518 0.039 880.235 0.039 823.953 0.039 789.711 0.039 789.711 4.956 823.953 4.956 880.235 4.956"/><polygon class="cls-2" points="915.494 51.961 930.417 30.182 945.34 51.961 952.458 51.961 930.417 19.794 908.377 51.961 915.494 51.961"/><polygon class="cls-2" points="924.317 19.794 880.235 19.794 902.276 51.961 924.317 19.794"/><polygon class="cls-2" points="921.722 51.961 939.113 51.961 930.417 39.27 921.722 51.961"/><polygon class="cls-2" points="971.777 51.961 986.7 30.182 1001.623 51.961 1008.74 51.961 986.7 19.794 964.659 51.961 971.777 51.961"/><polygon class="cls-2" points="980.599 19.794 936.518 19.794 958.558 51.961 980.599 19.794"/><polygon class="cls-2" points="978.004 51.961 995.395 51.961 986.7 39.27 978.004 51.961"/><polygon class="cls-2" points="1028.059 51.961 1042.982 30.182 1057.906 51.961 1065.023 51.961 1042.982 19.794 1020.942 51.961 1028.059 51.961"/><polygon class="cls-2" points="1036.882 19.794 992.8 19.794 1014.841 51.961 1036.882 19.794"/><polygon class="cls-2" points="1034.287 51.961 1051.678 51.961 1042.982 39.27 1034.287 51.961"/><polygon class="cls-2" points="1084.342 51.961 1099.265 30.182 1114.188 51.961 1121.306 51.961 1099.265 19.794 1077.224 51.961 1084.342 51.961"/><polygon class="cls-2" points="1093.164 19.794 1049.083 19.794 1071.124 51.961 1093.164 19.794"/><polygon class="cls-2" points="1090.569 51.961 1107.96 51.961 1099.265 39.27 1090.569 51.961"/><polygon class="cls-2" points="1140.624 51.961 1155.547 30.182 1170.471 51.961 1177.588 51.961 1155.547 19.794 1133.507 51.961 1140.624 51.961"/><polygon class="cls-2" points="1149.447 19.794 1105.366 19.794 1127.406 51.961 1149.447 19.794"/><polygon class="cls-2" points="1146.852 51.961 1164.243 51.961 1155.547 39.27 1146.852 51.961"/><polygon class="cls-2" points="1183.689 51.961 1183.689 19.794 1161.648 19.794 1183.689 51.961"/></g><g class="cls-1"><polygon class="cls-2" points="437.893 51.961 445.01 51.961 422.97 19.794 400.929 51.961 408.047 51.961 422.97 30.182 437.893 51.961"/><polygon class="cls-2" points="394.829 19.794 394.829 51.961 416.869 19.794 394.829 19.794"/><polygon class="cls-2" points="422.97 39.27 414.274 51.961 431.665 51.961 422.97 39.27"/><polygon class="cls-2" points="464.329 51.961 479.252 30.182 494.176 51.961 501.293 51.961 479.252 19.794 457.212 51.961 464.329 51.961"/><polygon class="cls-2" points="473.152 19.794 429.071 19.794 451.111 51.961 473.152 19.794"/><polygon class="cls-2" points="470.557 51.961 487.948 51.961 479.252 39.27 470.557 51.961"/><polygon class="cls-2" points="485.353 13.859 541.636 13.859 597.918 13.859 654.201 13.859 710.483 13.859 766.766 13.859 788.807 13.859 788.807 8.943 766.766 8.943 710.483 8.943 654.201 8.943 597.918 8.943 541.636 8.943 485.353 8.943 429.071 8.943 394.829 8.943 394.829 13.859 429.071 13.859 485.353 13.859"/><polygon class="cls-2" points="485.353 4.956 541.636 4.956 597.918 4.956 654.201 4.956 710.483 4.956 766.766 4.956 788.807 4.956 788.807 0.039 766.766 0.039 710.483 0.039 654.201 0.039 597.918 0.039 541.636 0.039 485.353 0.039 429.071 0.039 394.829 0.039 394.829 4.956 429.071 4.956 485.353 4.956"/><polygon class="cls-2" points="520.612 51.961 535.535 30.182 550.458 51.961 557.576 51.961 535.535 19.794 513.494 51.961 520.612 51.961"/><polygon class="cls-2" points="529.434 19.794 485.353 19.794 507.394 51.961 529.434 19.794"/><polygon class="cls-2" points="526.839 51.961 544.23 51.961 535.535 39.27 526.839 51.961"/><polygon class="cls-2" points="576.894 51.961 591.818 30.182 606.741 51.961 613.858 51.961 591.818 19.794 569.777 51.961 576.894 51.961"/><polygon class="cls-2" points="585.717 19.794 541.636 19.794 563.676 51.961 585.717 19.794"/><polygon class="cls-2" points="583.122 51.961 600.513 51.961 591.818 39.27 583.122 51.961"/><polygon class="cls-2" points="633.177 51.961 648.1 30.182 663.023 51.961 670.141 51.961 648.1 19.794 626.059 51.961 633.177 51.961"/><polygon class="cls-2" points="641.999 19.794 597.918 19.794 619.959 51.961 641.999 19.794"/><polygon class="cls-2" points="639.405 51.961 656.796 51.961 648.1 39.27 639.405 51.961"/><polygon class="cls-2" points="689.459 51.961 704.383 30.182 719.306 51.961 726.423 51.961 704.383 19.794 682.342 51.961 689.459 51.961"/><polygon class="cls-2" points="698.282 19.794 654.201 19.794 676.241 51.961 698.282 19.794"/><polygon class="cls-2" points="695.687 51.961 713.078 51.961 704.383 39.27 695.687 51.961"/><polygon class="cls-2" points="745.742 51.961 760.665 30.182 775.588 51.961 782.706 51.961 760.665 19.794 738.625 51.961 745.742 51.961"/><polygon class="cls-2" points="754.565 19.794 710.483 19.794 732.524 51.961 754.565 19.794"/><polygon class="cls-2" points="751.97 51.961 769.361 51.961 760.665 39.27 751.97 51.961"/><polygon class="cls-2" points="788.807 51.961 788.807 19.794 766.766 19.794 788.807 51.961"/></g><g class="cls-1"><polygon class="cls-2" points="43.065 51.961 50.182 51.961 28.141 19.794 6.101 51.961 13.218 51.961 28.141 30.182 43.065 51.961"/><polygon class="cls-2" points="0 19.794 0 51.961 22.041 19.794 0 19.794"/><polygon class="cls-2" points="28.141 39.27 19.446 51.961 36.837 51.961 28.141 39.27"/><polygon class="cls-2" points="69.501 51.961 84.424 30.182 99.347 51.961 106.464 51.961 84.424 19.794 62.383 51.961 69.501 51.961"/><polygon class="cls-2" points="78.323 19.794 34.242 19.794 56.283 51.961 78.323 19.794"/><polygon class="cls-2" points="75.728 51.961 93.119 51.961 84.424 39.27 75.728 51.961"/><polygon class="cls-2" points="90.524 13.859 146.807 13.859 203.09 13.859 259.372 13.859 315.655 13.859 371.937 13.859 393.978 13.859 393.978 8.943 371.937 8.943 315.655 8.943 259.372 8.943 203.09 8.943 146.807 8.943 90.524 8.943 34.242 8.943 0 8.943 0 13.859 34.242 13.859 90.524 13.859"/><polygon class="cls-2" points="90.524 4.956 146.807 4.956 203.09 4.956 259.372 4.956 315.655 4.956 371.937 4.956 393.978 4.956 393.978 0.039 371.937 0.039 315.655 0.039 259.372 0.039 203.09 0.039 146.807 0.039 90.524 0.039 34.242 0.039 0 0.039 0 4.956 34.242 4.956 90.524 4.956"/><polygon class="cls-2" points="125.783 51.961 140.706 30.182 155.63 51.961 162.747 51.961 140.706 19.794 118.666 51.961 125.783 51.961"/><polygon class="cls-2" points="134.606 19.794 90.524 19.794 112.565 51.961 134.606 19.794"/><polygon class="cls-2" points="132.011 51.961 149.402 51.961 140.706 39.27 132.011 51.961"/><polygon class="cls-2" points="182.066 51.961 196.989 30.182 211.912 51.961 219.03 51.961 196.989 19.794 174.948 51.961 182.066 51.961"/><polygon class="cls-2" points="190.888 19.794 146.807 19.794 168.848 51.961 190.888 19.794"/><polygon class="cls-2" points="188.293 51.961 205.684 51.961 196.989 39.27 188.293 51.961"/><polygon class="cls-2" points="238.348 51.961 253.272 30.182 268.195 51.961 275.312 51.961 253.272 19.794 231.231 51.961 238.348 51.961"/><polygon class="cls-2" points="247.171 19.794 203.09 19.794 225.13 51.961 247.171 19.794"/><polygon class="cls-2" points="244.576 51.961 261.967 51.961 253.272 39.27 244.576 51.961"/><polygon class="cls-2" points="294.631 51.961 309.554 30.182 324.477 51.961 331.595 51.961 309.554 19.794 287.513 51.961 294.631 51.961"/><polygon class="cls-2" points="303.453 19.794 259.372 19.794 281.413 51.961 303.453 19.794"/><polygon class="cls-2" points="300.859 51.961 318.25 51.961 309.554 39.27 300.859 51.961"/><polygon class="cls-2" points="350.913 51.961 365.837 30.182 380.76 51.961 387.877 51.961 365.837 19.794 343.796 51.961 350.913 51.961"/><polygon class="cls-2" points="359.736 19.794 315.655 19.794 337.695 51.961 359.736 19.794"/><polygon class="cls-2" points="357.141 51.961 374.532 51.961 365.837 39.27 357.141 51.961"/><polygon class="cls-2" points="393.978 51.961 393.978 19.794 371.937 19.794 393.978 51.961"/></g></svg>