<svg id="Layer_1" data-name="Layer 1" xmlns="http://www.w3.org/2000/svg" width="54.6705" height="54.5288" viewBox="0 0 54.6705 54.5288"><defs><style>.cls-1,.cls-6{fill:#0071bc;}.cls-1,.cls-5{stroke:#0071bc;}.cls-1,.cls-3,.cls-4,.cls-5,.cls-7,.cls-8{stroke-miterlimit:10;}.cls-2,.cls-4{fill:#fff;}.cls-3,.cls-7,.cls-8{stroke:#000;}.cls-4{stroke:#fff;}.cls-4,.cls-8{stroke-width:0.25px;}.cls-5,.cls-7{fill:none;}</style></defs><circle class="cls-1" cx="42.0521" cy="12.6216" r="12"/><path class="cls-2" d="M39.4292,7.4381a1.12,1.12,0,1,1-.3287-.7878A1.1052,1.1052,0,0,1,39.4292,7.4381Zm.0335,1.9389H37.2341v6.9756h2.2286Zm3.5212,0H40.7664v6.9756h2.1952v-3.66c0-2.0392,2.6577-2.2287,2.6577,0v3.66H47.82V11.9343c0-3.4376-3.9335-3.3095-4.8584-1.6213Z"/><circle class="cls-3" cx="12.5814" cy="12.6216" r="12"/><g id="layer1"><path id="path1009" class="cls-4" d="M7.59,7.9274l3.8728,5.1783-3.8972,4.21h.8772L11.8552,13.63l2.7567,3.6861h2.9849L13.506,11.8464l3.6275-3.919h-.8771l-3.1423,3.3948L10.5752,7.9274Zm1.43.7347h1.2183l5.909,7.907H14.9292Z"/></g><circle class="cls-5" cx="42.0521" cy="41.841" r="12"/><path class="cls-6" d="M39.4292,36.6575a1.12,1.12,0,1,1-.3287-.7878A1.1052,1.1052,0,0,1,39.4292,36.6575Zm.0335,1.9389H37.2341V45.572h2.2286Zm3.5212,0H40.7664V45.572h2.1952V41.9115c0-2.0392,2.6577-2.2286,2.6577,0V45.572H47.82V41.1538c0-3.4377-3.9335-3.31-4.8584-1.6214Z"/><circle class="cls-7" cx="12.5814" cy="41.841" r="12"/><g id="layer1-2" data-name="layer1"><path id="path1009-2" data-name="path1009" class="cls-8" d="M7.59,37.1469l3.8728,5.1782-3.8972,4.21h.8772l3.4121-3.6861,2.7567,3.6861h2.9849L13.506,41.0658l3.6275-3.9189h-.8771l-3.1423,3.3947-2.5389-3.3947Zm1.43.7346h1.2183l5.909,7.9071H14.9292Z"/></g></svg>