<svg width="19" height="18" viewBox="0 0 19 18" fill="none" xmlns="http://www.w3.org/2000/svg">
<path d="M11.9171 8.271H16.7458" stroke="#2A5699" stroke-width="0.92" stroke-miterlimit="10"/>
<path d="M11.9171 11.3318H16.7458" stroke="#2A5699" stroke-width="0.92" stroke-miterlimit="10"/>
<mask id="path-3-inside-1_106_12939" fill="white">
<path d="M5.06628 5.7185V1.84007C5.06915 1.72687 5.09429 1.61535 5.14027 1.51188C5.18625 1.4084 5.25217 1.315 5.33427 1.23702C5.41636 1.15903 5.51301 1.09798 5.61871 1.05736C5.7244 1.01674 5.83707 0.997351 5.95026 1.00029L15 1L18.9999 4.31519V16.9118C18.9941 17.1385 18.8993 17.3537 18.7359 17.5109C18.5725 17.6681 18.3537 17.7546 18.127 17.7516H5.97236C5.85917 17.7545 5.7465 17.7351 5.64081 17.6945C5.53511 17.6539 5.43846 17.5929 5.35637 17.5149C5.27427 17.4369 5.20835 17.3435 5.16237 17.24C5.11639 17.1365 5.09125 17.025 5.08838 16.9118V13.5969"/>
</mask>
<path d="M5.06628 1.84007L4.14658 1.81679L4.14628 1.82842V1.84007H5.06628ZM5.95026 1.00029L5.92637 1.91998L5.93833 1.92029L5.95029 1.92029L5.95026 1.00029ZM15 1L15.5871 0.291664L15.3317 0.0799893L15 0.08L15 1ZM18.9999 4.31519H19.9199V3.88279L19.587 3.60686L18.9999 4.31519ZM18.9999 16.9118L19.9196 16.9353L19.9199 16.9236V16.9118H18.9999ZM18.127 17.7516L18.1391 16.8316H18.127V17.7516ZM5.97236 17.7516V16.8316H5.96041L5.94847 16.8319L5.97236 17.7516ZM5.08838 16.9118H4.16838V16.9235L4.16868 16.9351L5.08838 16.9118ZM5.98628 5.7185V1.84007H4.14628V5.7185H5.98628ZM5.98599 1.86335C5.9858 1.87098 5.9841 1.8785 5.981 1.88548L4.29955 1.13828C4.20448 1.3522 4.1525 1.58276 4.14658 1.81679L5.98599 1.86335ZM5.981 1.88548C5.9779 1.89246 5.97345 1.89875 5.96792 1.90402L4.70062 0.570017C4.5309 0.731252 4.39461 0.92435 4.29955 1.13828L5.981 1.88548ZM5.96792 1.90402C5.96238 1.90928 5.95586 1.91339 5.94873 1.91613L5.28868 0.198594C5.07017 0.28257 4.87034 0.408781 4.70062 0.570017L5.96792 1.90402ZM5.94873 1.91613C5.94161 1.91887 5.93401 1.92018 5.92637 1.91998L5.97414 0.0806006C5.74012 0.0745232 5.5072 0.114618 5.28868 0.198594L5.94873 1.91613ZM5.95029 1.92029L15 1.92L15 0.08L5.95023 0.0802905L5.95029 1.92029ZM14.4129 1.70834L18.4128 5.02353L19.587 3.60686L15.5871 0.291664L14.4129 1.70834ZM18.0799 4.31519V16.9118H19.9199V4.31519H18.0799ZM18.0802 16.8883C18.0806 16.873 18.087 16.8585 18.098 16.8479L19.3737 18.1739C19.7115 17.8489 19.9076 17.4039 19.9196 16.9353L18.0802 16.8883ZM18.098 16.8479C18.1091 16.8373 18.1238 16.8315 18.1391 16.8317L18.1149 18.6715C18.5836 18.6777 19.0359 18.4989 19.3737 18.1739L18.098 16.8479ZM18.127 16.8316H5.97236V18.6716H18.127V16.8316ZM5.94847 16.8319C5.9561 16.8317 5.9637 16.833 5.97083 16.8358L5.31078 18.5533C5.5293 18.6373 5.76223 18.6774 5.99624 18.6713L5.94847 16.8319ZM5.97083 16.8358C5.97796 16.8385 5.98448 16.8426 5.99002 16.8479L4.72272 18.1819C4.89244 18.3431 5.09227 18.4693 5.31078 18.5533L5.97083 16.8358ZM5.99002 16.8479C5.99555 16.8531 6 16.8594 6.0031 16.8664L4.32165 17.6136C4.41671 17.8275 4.553 18.0206 4.72272 18.1819L5.99002 16.8479ZM6.0031 16.8664C6.0062 16.8734 6.0079 16.8809 6.00809 16.8885L4.16868 16.9351C4.1746 17.1691 4.22658 17.3997 4.32165 17.6136L6.0031 16.8664ZM6.00838 16.9118V13.5969H4.16838V16.9118H6.00838Z" fill="#2A5699" mask="url(#path-3-inside-1_106_12939)"/>
<mask id="path-5-inside-2_106_12939" fill="white">
<path d="M18.5 4.5H14.5V1.5"/>
</mask>
<path d="M14.5 4.5H13.58V5.42H14.5V4.5ZM18.5 3.58H14.5V5.42H18.5V3.58ZM15.42 4.5V1.5H13.58V4.5H15.42Z" fill="#2A5699" mask="url(#path-5-inside-2_106_12939)"/>
<path d="M9.86184 14.039H1V5.55286H5.05523H9.86184V14.039Z" stroke="#2A5699" stroke-width="0.92" stroke-miterlimit="10"/>
<path d="M4.82322 7.51961H5.81769C6.06078 8.62458 6.29282 9.72955 6.54697 10.9008C6.74586 9.73691 6.9558 8.5767 7.1768 7.42017H8.21547C7.82873 9.03342 7.47514 10.6688 7.0442 12.282C6.75691 12.4257 6.31492 12.282 5.93923 12.282C5.70719 11.1771 5.43095 10.0721 5.23205 8.96712C5.20832 9.06179 5.18988 9.1577 5.17681 9.25441C4.97791 10.2378 4.73482 11.2102 4.52488 12.1936L3.50831 12.1273C3.22101 10.6577 2.87847 9.19916 2.61328 7.70746H3.50831C3.6851 8.81243 3.89504 9.84005 4.04974 10.9008C4.30388 9.79585 4.54697 8.69088 4.79007 7.58591L4.82322 7.51961Z" fill="#2A5699"/>
</svg>
