<svg id="Layer_1" data-name="Layer 1" xmlns="http://www.w3.org/2000/svg" width="1920" height="58" viewBox="0 0 1920 58"><defs><style>.cls-1{opacity:0.5;}.cls-2{fill:#ff0404;}</style></defs><g class="cls-1"><polygon class="cls-2" points="35.444 42.733 41.302 42.733 23.161 16.259 5.021 42.733 10.879 42.733 23.161 24.808 35.444 42.733"/><polygon class="cls-2" points="0 16.259 0 42.733 18.14 16.259 0 16.259"/><polygon class="cls-2" points="23.161 32.289 16.005 42.733 30.318 42.733 23.161 32.289"/><polygon class="cls-2" points="57.202 42.733 69.484 24.808 81.766 42.733 87.624 42.733 69.484 16.259 51.344 42.733 57.202 42.733"/><polygon class="cls-2" points="64.463 16.259 28.182 16.259 46.323 42.733 64.463 16.259"/><polygon class="cls-2" points="62.327 42.733 76.641 42.733 69.484 32.289 62.327 42.733"/><polygon class="cls-2" points="74.505 11.374 120.828 11.374 167.15 11.374 213.473 11.374 259.796 11.374 306.119 11.374 324.259 11.374 324.259 7.328 306.119 7.328 259.796 7.328 213.473 7.328 167.15 7.328 120.828 7.328 74.505 7.328 28.182 7.328 0 7.328 0 11.374 28.182 11.374 74.505 11.374"/><polygon class="cls-2" points="74.505 4.046 120.828 4.046 167.15 4.046 213.473 4.046 259.796 4.046 306.119 4.046 324.259 4.046 324.259 0 306.119 0 259.796 0 213.473 0 167.15 0 120.828 0 74.505 0 28.182 0 0 0 0 4.046 28.182 4.046 74.505 4.046"/><polygon class="cls-2" points="103.524 42.733 115.807 24.808 128.089 42.733 133.947 42.733 115.807 16.259 97.666 42.733 103.524 42.733"/><polygon class="cls-2" points="110.786 16.259 74.505 16.259 92.645 42.733 110.786 16.259"/><polygon class="cls-2" points="108.65 42.733 122.963 42.733 115.807 32.289 108.65 42.733"/><polygon class="cls-2" points="149.847 42.733 162.129 24.808 174.412 42.733 180.27 42.733 162.129 16.259 143.989 42.733 149.847 42.733"/><polygon class="cls-2" points="157.108 16.259 120.828 16.259 138.968 42.733 157.108 16.259"/><polygon class="cls-2" points="154.973 42.733 169.286 42.733 162.129 32.289 154.973 42.733"/><polygon class="cls-2" points="196.17 42.733 208.452 24.808 220.734 42.733 226.592 42.733 208.452 16.259 190.312 42.733 196.17 42.733"/><polygon class="cls-2" points="203.431 16.259 167.15 16.259 185.291 42.733 203.431 16.259"/><polygon class="cls-2" points="201.295 42.733 215.609 42.733 208.452 32.289 201.295 42.733"/><polygon class="cls-2" points="242.492 42.733 254.775 24.808 267.057 42.733 272.915 42.733 254.775 16.259 236.634 42.733 242.492 42.733"/><polygon class="cls-2" points="249.754 16.259 213.473 16.259 231.613 42.733 249.754 16.259"/><polygon class="cls-2" points="247.618 42.733 261.931 42.733 254.775 32.289 247.618 42.733"/><polygon class="cls-2" points="288.815 42.733 301.097 24.808 313.38 42.733 319.238 42.733 301.097 16.259 282.957 42.733 288.815 42.733"/><polygon class="cls-2" points="296.076 16.259 259.796 16.259 277.936 42.733 296.076 16.259"/><polygon class="cls-2" points="293.941 42.733 308.254 42.733 301.097 32.289 293.941 42.733"/><polygon class="cls-2" points="74.505 58 120.828 58 167.15 58 213.473 58 259.796 58 306.119 58 324.259 58 324.259 47.618 306.119 47.618 259.796 47.618 213.473 47.618 167.15 47.618 120.828 47.618 74.505 47.618 28.182 47.618 0 47.618 0 58 28.182 58 74.505 58"/><polygon class="cls-2" points="324.259 42.733 324.259 16.259 306.119 16.259 324.259 42.733"/></g><g class="cls-1"><polygon class="cls-2" points="360.18 42.733 366.038 42.733 347.898 16.259 329.758 42.733 335.616 42.733 347.898 24.808 360.18 42.733"/><polygon class="cls-2" points="324.737 16.259 324.737 42.733 342.877 16.259 324.737 16.259"/><polygon class="cls-2" points="347.898 32.289 340.741 42.733 355.055 42.733 347.898 32.289"/><polygon class="cls-2" points="381.938 42.733 394.221 24.808 406.503 42.733 412.361 42.733 394.221 16.259 376.08 42.733 381.938 42.733"/><polygon class="cls-2" points="389.199 16.259 352.919 16.259 371.059 42.733 389.199 16.259"/><polygon class="cls-2" points="387.064 42.733 401.377 42.733 394.221 32.289 387.064 42.733"/><polygon class="cls-2" points="399.242 11.374 445.564 11.374 491.887 11.374 538.21 11.374 584.532 11.374 630.855 11.374 648.995 11.374 648.995 7.328 630.855 7.328 584.532 7.328 538.21 7.328 491.887 7.328 445.564 7.328 399.242 7.328 352.919 7.328 324.737 7.328 324.737 11.374 352.919 11.374 399.242 11.374"/><polygon class="cls-2" points="399.242 4.046 445.564 4.046 491.887 4.046 538.21 4.046 584.532 4.046 630.855 4.046 648.995 4.046 648.995 0 630.855 0 584.532 0 538.21 0 491.887 0 445.564 0 399.242 0 352.919 0 324.737 0 324.737 4.046 352.919 4.046 399.242 4.046"/><polygon class="cls-2" points="428.261 42.733 440.543 24.808 452.826 42.733 458.684 42.733 440.543 16.259 422.403 42.733 428.261 42.733"/><polygon class="cls-2" points="435.522 16.259 399.242 16.259 417.382 42.733 435.522 16.259"/><polygon class="cls-2" points="433.387 42.733 447.7 42.733 440.543 32.289 433.387 42.733"/><polygon class="cls-2" points="474.584 42.733 486.866 24.808 499.148 42.733 505.006 42.733 486.866 16.259 468.726 42.733 474.584 42.733"/><polygon class="cls-2" points="481.845 16.259 445.564 16.259 463.705 42.733 481.845 16.259"/><polygon class="cls-2" points="479.709 42.733 494.023 42.733 486.866 32.289 479.709 42.733"/><polygon class="cls-2" points="520.906 42.733 533.189 24.808 545.471 42.733 551.329 42.733 533.189 16.259 515.048 42.733 520.906 42.733"/><polygon class="cls-2" points="528.168 16.259 491.887 16.259 510.027 42.733 528.168 16.259"/><polygon class="cls-2" points="526.032 42.733 540.345 42.733 533.189 32.289 526.032 42.733"/><polygon class="cls-2" points="567.229 42.733 579.511 24.808 591.794 42.733 597.652 42.733 579.511 16.259 561.371 42.733 567.229 42.733"/><polygon class="cls-2" points="574.49 16.259 538.21 16.259 556.35 42.733 574.49 16.259"/><polygon class="cls-2" points="572.355 42.733 586.668 42.733 579.511 32.289 572.355 42.733"/><polygon class="cls-2" points="613.552 42.733 625.834 24.808 638.116 42.733 643.974 42.733 625.834 16.259 607.694 42.733 613.552 42.733"/><polygon class="cls-2" points="620.813 16.259 584.532 16.259 602.673 42.733 620.813 16.259"/><polygon class="cls-2" points="618.677 42.733 632.991 42.733 625.834 32.289 618.677 42.733"/><polygon class="cls-2" points="399.242 58 445.564 58 491.887 58 538.21 58 584.532 58 630.855 58 648.995 58 648.995 47.618 630.855 47.618 584.532 47.618 538.21 47.618 491.887 47.618 445.564 47.618 399.242 47.618 352.919 47.618 324.737 47.618 324.737 58 352.919 58 399.242 58"/><polygon class="cls-2" points="648.995 42.733 648.995 16.259 630.855 16.259 648.995 42.733"/></g><g class="cls-1"><polygon class="cls-2" points="684.589 42.733 690.447 42.733 672.307 16.259 654.166 42.733 660.024 42.733 672.307 24.808 684.589 42.733"/><polygon class="cls-2" points="649.145 16.259 649.145 42.733 667.285 16.259 649.145 16.259"/><polygon class="cls-2" points="672.307 32.289 665.15 42.733 679.463 42.733 672.307 32.289"/><polygon class="cls-2" points="706.347 42.733 718.629 24.808 730.912 42.733 736.77 42.733 718.629 16.259 700.489 42.733 706.347 42.733"/><polygon class="cls-2" points="713.608 16.259 677.328 16.259 695.468 42.733 713.608 16.259"/><polygon class="cls-2" points="711.473 42.733 725.786 42.733 718.629 32.289 711.473 42.733"/><polygon class="cls-2" points="723.65 11.374 769.973 11.374 816.296 11.374 862.618 11.374 908.941 11.374 955.264 11.374 973.404 11.374 973.404 7.328 955.264 7.328 908.941 7.328 862.618 7.328 816.296 7.328 769.973 7.328 723.65 7.328 677.328 7.328 649.145 7.328 649.145 11.374 677.328 11.374 723.65 11.374"/><polygon class="cls-2" points="723.65 4.046 769.973 4.046 816.296 4.046 862.618 4.046 908.941 4.046 955.264 4.046 973.404 4.046 973.404 0 955.264 0 908.941 0 862.618 0 816.296 0 769.973 0 723.65 0 677.328 0 649.145 0 649.145 4.046 677.328 4.046 723.65 4.046"/><polygon class="cls-2" points="752.67 42.733 764.952 24.808 777.234 42.733 783.092 42.733 764.952 16.259 746.812 42.733 752.67 42.733"/><polygon class="cls-2" points="759.931 16.259 723.65 16.259 741.791 42.733 759.931 16.259"/><polygon class="cls-2" points="757.795 42.733 772.109 42.733 764.952 32.289 757.795 42.733"/><polygon class="cls-2" points="798.992 42.733 811.275 24.808 823.557 42.733 829.415 42.733 811.275 16.259 793.134 42.733 798.992 42.733"/><polygon class="cls-2" points="806.254 16.259 769.973 16.259 788.113 42.733 806.254 16.259"/><polygon class="cls-2" points="804.118 42.733 818.431 42.733 811.275 32.289 804.118 42.733"/><polygon class="cls-2" points="845.315 42.733 857.597 24.808 869.88 42.733 875.738 42.733 857.597 16.259 839.457 42.733 845.315 42.733"/><polygon class="cls-2" points="852.576 16.259 816.296 16.259 834.436 42.733 852.576 16.259"/><polygon class="cls-2" points="850.441 42.733 864.754 42.733 857.597 32.289 850.441 42.733"/><polygon class="cls-2" points="891.638 42.733 903.92 24.808 916.202 42.733 922.06 42.733 903.92 16.259 885.78 42.733 891.638 42.733"/><polygon class="cls-2" points="898.899 16.259 862.618 16.259 880.759 42.733 898.899 16.259"/><polygon class="cls-2" points="896.763 42.733 911.077 42.733 903.92 32.289 896.763 42.733"/><polygon class="cls-2" points="937.96 42.733 950.243 24.808 962.525 42.733 968.383 42.733 950.243 16.259 932.102 42.733 937.96 42.733"/><polygon class="cls-2" points="945.222 16.259 908.941 16.259 927.081 42.733 945.222 16.259"/><polygon class="cls-2" points="943.086 42.733 957.399 42.733 950.243 32.289 943.086 42.733"/><polygon class="cls-2" points="723.65 58 769.973 58 816.296 58 862.618 58 908.941 58 955.264 58 973.404 58 973.404 47.618 955.264 47.618 908.941 47.618 862.618 47.618 816.296 47.618 769.973 47.618 723.65 47.618 677.328 47.618 649.145 47.618 649.145 58 677.328 58 723.65 58"/><polygon class="cls-2" points="973.404 42.733 973.404 16.259 955.264 16.259 973.404 42.733"/></g><g class="cls-1"><polygon class="cls-2" points="1008.754 42.733 1014.612 42.733 996.472 16.259 978.332 42.733 984.19 42.733 996.472 24.808 1008.754 42.733"/><polygon class="cls-2" points="973.311 16.259 973.311 42.733 991.451 16.259 973.311 16.259"/><polygon class="cls-2" points="996.472 32.289 989.315 42.733 1003.629 42.733 996.472 32.289"/><polygon class="cls-2" points="1030.512 42.733 1042.795 24.808 1055.077 42.733 1060.935 42.733 1042.795 16.259 1024.654 42.733 1030.512 42.733"/><polygon class="cls-2" points="1037.774 16.259 1001.493 16.259 1019.633 42.733 1037.774 16.259"/><polygon class="cls-2" points="1035.638 42.733 1049.951 42.733 1042.795 32.289 1035.638 42.733"/><polygon class="cls-2" points="1047.816 11.374 1094.138 11.374 1140.461 11.374 1186.784 11.374 1233.107 11.374 1279.429 11.374 1297.57 11.374 1297.57 7.328 1279.429 7.328 1233.107 7.328 1186.784 7.328 1140.461 7.328 1094.138 7.328 1047.816 7.328 1001.493 7.328 973.311 7.328 973.311 11.374 1001.493 11.374 1047.816 11.374"/><polygon class="cls-2" points="1047.816 4.046 1094.138 4.046 1140.461 4.046 1186.784 4.046 1233.107 4.046 1279.429 4.046 1297.57 4.046 1297.57 0 1279.429 0 1233.107 0 1186.784 0 1140.461 0 1094.138 0 1047.816 0 1001.493 0 973.311 0 973.311 4.046 1001.493 4.046 1047.816 4.046"/><polygon class="cls-2" points="1076.835 42.733 1089.117 24.808 1101.4 42.733 1107.258 42.733 1089.117 16.259 1070.977 42.733 1076.835 42.733"/><polygon class="cls-2" points="1084.096 16.259 1047.816 16.259 1065.956 42.733 1084.096 16.259"/><polygon class="cls-2" points="1081.961 42.733 1096.274 42.733 1089.117 32.289 1081.961 42.733"/><polygon class="cls-2" points="1123.158 42.733 1135.44 24.808 1147.723 42.733 1153.58 42.733 1135.44 16.259 1117.3 42.733 1123.158 42.733"/><polygon class="cls-2" points="1130.419 16.259 1094.138 16.259 1112.279 42.733 1130.419 16.259"/><polygon class="cls-2" points="1128.283 42.733 1142.597 42.733 1135.44 32.289 1128.283 42.733"/><polygon class="cls-2" points="1169.48 42.733 1181.763 24.808 1194.045 42.733 1199.903 42.733 1181.763 16.259 1163.623 42.733 1169.48 42.733"/><polygon class="cls-2" points="1176.742 16.259 1140.461 16.259 1158.601 42.733 1176.742 16.259"/><polygon class="cls-2" points="1174.606 42.733 1188.92 42.733 1181.763 32.289 1174.606 42.733"/><polygon class="cls-2" points="1215.803 42.733 1228.085 24.808 1240.368 42.733 1246.226 42.733 1228.085 16.259 1209.945 42.733 1215.803 42.733"/><polygon class="cls-2" points="1223.064 16.259 1186.784 16.259 1204.924 42.733 1223.064 16.259"/><polygon class="cls-2" points="1220.929 42.733 1235.242 42.733 1228.085 32.289 1220.929 42.733"/><polygon class="cls-2" points="1262.126 42.733 1274.408 24.808 1286.691 42.733 1292.548 42.733 1274.408 16.259 1256.268 42.733 1262.126 42.733"/><polygon class="cls-2" points="1269.387 16.259 1233.107 16.259 1251.247 42.733 1269.387 16.259"/><polygon class="cls-2" points="1267.251 42.733 1281.565 42.733 1274.408 32.289 1267.251 42.733"/><polygon class="cls-2" points="1047.816 58 1094.138 58 1140.461 58 1186.784 58 1233.107 58 1279.429 58 1297.57 58 1297.57 47.618 1279.429 47.618 1233.107 47.618 1186.784 47.618 1140.461 47.618 1094.138 47.618 1047.816 47.618 1001.493 47.618 973.311 47.618 973.311 58 1001.493 58 1047.816 58"/><polygon class="cls-2" points="1297.57 42.733 1297.57 16.259 1279.429 16.259 1297.57 42.733"/></g><g class="cls-1"><polygon class="cls-2" points="1333.491 42.733 1339.349 42.733 1321.209 16.259 1303.068 42.733 1308.926 42.733 1321.209 24.808 1333.491 42.733"/><polygon class="cls-2" points="1298.047 16.259 1298.047 42.733 1316.188 16.259 1298.047 16.259"/><polygon class="cls-2" points="1321.209 32.289 1314.052 42.733 1328.365 42.733 1321.209 32.289"/><polygon class="cls-2" points="1355.249 42.733 1367.531 24.808 1379.814 42.733 1385.672 42.733 1367.531 16.259 1349.391 42.733 1355.249 42.733"/><polygon class="cls-2" points="1362.51 16.259 1326.23 16.259 1344.37 42.733 1362.51 16.259"/><polygon class="cls-2" points="1360.375 42.733 1374.688 42.733 1367.531 32.289 1360.375 42.733"/><polygon class="cls-2" points="1372.552 11.374 1418.875 11.374 1465.198 11.374 1511.52 11.374 1557.843 11.374 1604.166 11.374 1622.306 11.374 1622.306 7.328 1604.166 7.328 1557.843 7.328 1511.52 7.328 1465.198 7.328 1418.875 7.328 1372.552 7.328 1326.23 7.328 1298.047 7.328 1298.047 11.374 1326.23 11.374 1372.552 11.374"/><polygon class="cls-2" points="1372.552 4.046 1418.875 4.046 1465.198 4.046 1511.52 4.046 1557.843 4.046 1604.166 4.046 1622.306 4.046 1622.306 0 1604.166 0 1557.843 0 1511.52 0 1465.198 0 1418.875 0 1372.552 0 1326.23 0 1298.047 0 1298.047 4.046 1326.23 4.046 1372.552 4.046"/><polygon class="cls-2" points="1401.572 42.733 1413.854 24.808 1426.136 42.733 1431.994 42.733 1413.854 16.259 1395.714 42.733 1401.572 42.733"/><polygon class="cls-2" points="1408.833 16.259 1372.552 16.259 1390.693 42.733 1408.833 16.259"/><polygon class="cls-2" points="1406.697 42.733 1421.011 42.733 1413.854 32.289 1406.697 42.733"/><polygon class="cls-2" points="1447.894 42.733 1460.177 24.808 1472.459 42.733 1478.317 42.733 1460.177 16.259 1442.036 42.733 1447.894 42.733"/><polygon class="cls-2" points="1455.156 16.259 1418.875 16.259 1437.015 42.733 1455.156 16.259"/><polygon class="cls-2" points="1453.02 42.733 1467.333 42.733 1460.177 32.289 1453.02 42.733"/><polygon class="cls-2" points="1494.217 42.733 1506.499 24.808 1518.782 42.733 1524.64 42.733 1506.499 16.259 1488.359 42.733 1494.217 42.733"/><polygon class="cls-2" points="1501.478 16.259 1465.198 16.259 1483.338 42.733 1501.478 16.259"/><polygon class="cls-2" points="1499.343 42.733 1513.656 42.733 1506.499 32.289 1499.343 42.733"/><polygon class="cls-2" points="1540.54 42.733 1552.822 24.808 1565.104 42.733 1570.962 42.733 1552.822 16.259 1534.682 42.733 1540.54 42.733"/><polygon class="cls-2" points="1547.801 16.259 1511.52 16.259 1529.661 42.733 1547.801 16.259"/><polygon class="cls-2" points="1545.665 42.733 1559.979 42.733 1552.822 32.289 1545.665 42.733"/><polygon class="cls-2" points="1586.862 42.733 1599.145 24.808 1611.427 42.733 1617.285 42.733 1599.145 16.259 1581.004 42.733 1586.862 42.733"/><polygon class="cls-2" points="1594.124 16.259 1557.843 16.259 1575.983 42.733 1594.124 16.259"/><polygon class="cls-2" points="1591.988 42.733 1606.301 42.733 1599.145 32.289 1591.988 42.733"/><polygon class="cls-2" points="1372.552 58 1418.875 58 1465.198 58 1511.52 58 1557.843 58 1604.166 58 1622.306 58 1622.306 47.618 1604.166 47.618 1557.843 47.618 1511.52 47.618 1465.198 47.618 1418.875 47.618 1372.552 47.618 1326.23 47.618 1298.047 47.618 1298.047 58 1326.23 58 1372.552 58"/><polygon class="cls-2" points="1622.306 42.733 1622.306 16.259 1604.166 16.259 1622.306 42.733"/></g><g class="cls-1"><polygon class="cls-2" points="1657.75 42.733 1663.608 42.733 1645.467 16.259 1627.327 42.733 1633.185 42.733 1645.467 24.808 1657.75 42.733"/><polygon class="cls-2" points="1622.306 16.259 1622.306 42.733 1640.446 16.259 1622.306 16.259"/><polygon class="cls-2" points="1645.467 32.289 1638.311 42.733 1652.624 42.733 1645.467 32.289"/><polygon class="cls-2" points="1679.508 42.733 1691.79 24.808 1704.072 42.733 1709.93 42.733 1691.79 16.259 1673.65 42.733 1679.508 42.733"/><polygon class="cls-2" points="1686.769 16.259 1650.488 16.259 1668.629 42.733 1686.769 16.259"/><polygon class="cls-2" points="1684.633 42.733 1698.947 42.733 1691.79 32.289 1684.633 42.733"/><polygon class="cls-2" points="1696.811 11.374 1743.134 11.374 1789.457 11.374 1835.779 11.374 1882.102 11.374 1928.425 11.374 1946.565 11.374 1946.565 7.328 1928.425 7.328 1882.102 7.328 1835.779 7.328 1789.457 7.328 1743.134 7.328 1696.811 7.328 1650.488 7.328 1622.306 7.328 1622.306 11.374 1650.488 11.374 1696.811 11.374"/><polygon class="cls-2" points="1696.811 4.046 1743.134 4.046 1789.457 4.046 1835.779 4.046 1882.102 4.046 1928.425 4.046 1946.565 4.046 1946.565 0 1928.425 0 1882.102 0 1835.779 0 1789.457 0 1743.134 0 1696.811 0 1650.488 0 1622.306 0 1622.306 4.046 1650.488 4.046 1696.811 4.046"/><polygon class="cls-2" points="1725.83 42.733 1738.113 24.808 1750.395 42.733 1756.253 42.733 1738.113 16.259 1719.973 42.733 1725.83 42.733"/><polygon class="cls-2" points="1733.092 16.259 1696.811 16.259 1714.951 42.733 1733.092 16.259"/><polygon class="cls-2" points="1730.956 42.733 1745.269 42.733 1738.113 32.289 1730.956 42.733"/><polygon class="cls-2" points="1772.153 42.733 1784.435 24.808 1796.718 42.733 1802.576 42.733 1784.435 16.259 1766.295 42.733 1772.153 42.733"/><polygon class="cls-2" points="1779.414 16.259 1743.134 16.259 1761.274 42.733 1779.414 16.259"/><polygon class="cls-2" points="1777.279 42.733 1791.592 42.733 1784.435 32.289 1777.279 42.733"/><polygon class="cls-2" points="1818.476 42.733 1830.758 24.808 1843.041 42.733 1848.898 42.733 1830.758 16.259 1812.618 42.733 1818.476 42.733"/><polygon class="cls-2" points="1825.737 16.259 1789.457 16.259 1807.597 42.733 1825.737 16.259"/><polygon class="cls-2" points="1823.601 42.733 1837.915 42.733 1830.758 32.289 1823.601 42.733"/><polygon class="cls-2" points="1864.798 42.733 1877.081 24.808 1889.363 42.733 1895.221 42.733 1877.081 16.259 1858.941 42.733 1864.798 42.733"/><polygon class="cls-2" points="1872.06 16.259 1835.779 16.259 1853.92 42.733 1872.06 16.259"/><polygon class="cls-2" points="1869.924 42.733 1884.238 42.733 1877.081 32.289 1869.924 42.733"/><polygon class="cls-2" points="1911.121 42.733 1923.404 24.808 1935.686 42.733 1941.544 42.733 1923.404 16.259 1905.263 42.733 1911.121 42.733"/><polygon class="cls-2" points="1918.382 16.259 1882.102 16.259 1900.242 42.733 1918.382 16.259"/><polygon class="cls-2" points="1916.247 42.733 1930.56 42.733 1923.404 32.289 1916.247 42.733"/><polygon class="cls-2" points="1696.811 58 1743.134 58 1789.457 58 1835.779 58 1882.102 58 1928.425 58 1946.565 58 1946.565 47.618 1928.425 47.618 1882.102 47.618 1835.779 47.618 1789.457 47.618 1743.134 47.618 1696.811 47.618 1650.488 47.618 1622.306 47.618 1622.306 58 1650.488 58 1696.811 58"/></g></svg>