<svg width="142" height="87" viewBox="0 0 142 87" fill="none" xmlns="http://www.w3.org/2000/svg">
<g id="footer-logos">
<g id="Linkedin-hover">
<path id="Ellipse 4" d="M140.974 67C140.974 77.7638 132.139 86.5 121.228 86.5C110.317 86.5 101.482 77.7638 101.482 67C101.482 56.2362 110.317 47.5 121.228 47.5C132.139 47.5 140.974 56.2362 140.974 67Z" stroke="#FF7E00"/>
<path id="path1184" d="M131.925 67.0939C131.605 64.5806 130.437 63.0001 126.997 63.0001C124.957 63.0001 123.587 63.7483 123.027 64.799H122.968V63.0001H119.205V65.5582V76.3332H123.138V69.7251C123.138 67.9819 123.471 66.2945 125.653 66.2945C127.803 66.2945 127.976 68.2871 127.976 69.8375V76.3332H132.026V69.0061C132.026 68.3227 131.997 67.6832 131.922 67.0939M114.143 56.3333C112.838 56.3333 111.78 57.3785 111.78 58.6667C111.78 59.9558 112.838 61 114.143 61C115.448 61 116.505 59.9558 116.505 58.6667C116.505 57.3785 115.448 56.3333 114.143 56.3333ZM111.781 66.5385V76.3333H116.505V65.751V63.0002H111.781V66.5385Z" fill="#FF7E00"/>
</g>
<g id="Twitter-hover">
<path id="Ellipse 5" d="M90.4824 67C90.4824 77.7638 81.6478 86.5 70.7368 86.5C59.8259 86.5 50.9912 77.7638 50.9912 67C50.9912 56.2362 59.8259 47.5 70.7368 47.5C81.6478 47.5 90.4824 56.2362 90.4824 67Z" stroke="#FF7E00"/>
<path id="path1192" d="M84.2343 60.0351C83.2914 60.437 82.2781 60.7077 81.2132 60.8287C82.3005 60.2041 83.133 59.2163 83.5267 58.0355C82.5113 58.6145 81.3832 59.0347 80.1851 59.2619C79.2267 58.281 77.8585 57.6667 76.3464 57.6667C73.4415 57.6667 71.0857 59.9289 71.0857 62.7163C71.0857 63.1126 71.1323 63.4963 71.2203 63.8663C66.8491 63.6562 62.9718 61.6452 60.3775 58.5917C59.9254 59.3362 59.6643 60.2041 59.6643 61.1291C59.6643 62.8808 60.5955 64.4258 62.0058 65.3314C61.1446 65.3051 60.3319 65.0779 59.622 64.6999V64.7627C59.622 65.4091 59.752 66.0257 59.9827 66.5932C60.6246 68.1759 62.071 69.3727 63.8434 69.7153C63.4006 69.8295 62.937 69.8923 62.4555 69.8923C62.118 69.8923 61.7888 69.8603 61.4667 69.801C62.1367 71.8062 64.079 73.2668 66.3806 73.3068C64.5791 74.6622 62.3127 75.4684 59.847 75.4684C59.4217 75.4684 59.0035 75.4455 58.5898 75.3987C60.921 76.8307 63.6864 77.6667 66.6558 77.6667C74.8801 77.6667 79.9342 72.1123 81.2672 66.3489C81.5025 65.3314 81.6244 64.3048 81.6244 63.3011C81.6244 63.0841 81.6244 62.8648 81.6082 62.649C82.6356 61.9364 83.5284 61.048 84.2321 60.0351" fill="#FF7E00"/>
</g>
<g id="Facebook-hover">
<path id="Ellipse 5_2" d="M39.9912 67C39.9912 77.7638 31.1566 86.5 20.2456 86.5C9.33464 86.5 0.5 77.7638 0.5 67C0.5 56.2362 9.33464 47.5 20.2456 47.5C31.1566 47.5 39.9912 56.2362 39.9912 67Z" stroke="#FF7E00"/>
<path id="path1200" d="M22.5345 63.0002V61.4006C22.5345 60.6213 23.0982 60.4404 23.4936 60.4404H25.927V57.0127L22.5763 57C18.8565 57 18.0105 59.5562 18.0105 61.1924V63.0004H15.8594V65.4167V67H18.0291V77H22.367V67H25.5863L25.7425 65.4286L25.9822 63.0004L22.5345 63.0002Z" fill="#FF7E00"/>
</g>
<g id="Linkedin">
<path id="Ellipse 4_2" d="M140.974 20C140.974 30.7638 132.139 39.5 121.228 39.5C110.317 39.5 101.482 30.7638 101.482 20C101.482 9.23618 110.317 0.5 121.228 0.5C132.139 0.5 140.974 9.23618 140.974 20Z" stroke="#808080"/>
<path id="path1184_2" d="M131.925 20.094C131.605 17.5806 130.437 16.0001 126.997 16.0001C124.957 16.0001 123.587 16.7483 123.027 17.799H122.968V16.0001H119.205V18.5582V29.3332H123.138V22.7251C123.138 20.982 123.471 19.2945 125.653 19.2945C127.803 19.2945 127.976 21.2871 127.976 22.8375V29.3332H132.026V22.0061C132.026 21.3227 131.997 20.6832 131.922 20.094M114.143 9.33334C112.838 9.33334 111.78 10.3785 111.78 11.6667C111.78 12.9558 112.838 14 114.143 14C115.448 14 116.505 12.9558 116.505 11.6667C116.505 10.3785 115.448 9.33334 114.143 9.33334ZM111.781 19.5385V29.3333H116.505V18.751V16.0002H111.781V19.5385Z" fill="#808080"/>
</g>
<g id="Twitter">
<path id="Ellipse 5_3" d="M90.4824 20C90.4824 30.7638 81.6478 39.5 70.7368 39.5C59.8259 39.5 50.9912 30.7638 50.9912 20C50.9912 9.23618 59.8259 0.5 70.7368 0.5C81.6478 0.5 90.4824 9.23618 90.4824 20Z" stroke="#808080"/>
<path id="path1192_2" d="M84.2343 13.0351C83.2914 13.437 82.2781 13.7077 81.2132 13.8287C82.3005 13.2041 83.133 12.2163 83.5267 11.0355C82.5113 11.6145 81.3832 12.0347 80.1851 12.2619C79.2267 11.281 77.8585 10.6667 76.3464 10.6667C73.4415 10.6667 71.0857 12.9288 71.0857 15.7163C71.0857 16.1126 71.1323 16.4963 71.2203 16.8663C66.8491 16.6562 62.9718 14.6452 60.3775 11.5916C59.9254 12.3362 59.6643 13.2041 59.6643 14.1291C59.6643 15.8808 60.5955 17.4258 62.0058 18.3314C61.1446 18.3051 60.3319 18.0779 59.622 17.6999V17.7627C59.622 18.409 59.752 19.0257 59.9827 19.5932C60.6246 21.1759 62.071 22.3727 63.8434 22.7153C63.4006 22.8295 62.937 22.8923 62.4555 22.8923C62.118 22.8923 61.7888 22.8603 61.4667 22.801C62.1367 24.8062 64.079 26.2668 66.3806 26.3068C64.5791 27.6622 62.3127 28.4684 59.847 28.4684C59.4217 28.4684 59.0035 28.4455 58.5898 28.3987C60.921 29.8307 63.6864 30.6667 66.6558 30.6667C74.8801 30.6667 79.9342 25.1123 81.2672 19.3489C81.5025 18.3314 81.6244 17.3048 81.6244 16.301C81.6244 16.0841 81.6244 15.8648 81.6082 15.6489C82.6356 14.9364 83.5284 14.048 84.2321 13.0351" fill="#808080"/>
</g>
<g id="Facebook">
<path id="Ellipse 5_4" d="M39.9912 20C39.9912 30.7638 31.1566 39.5 20.2456 39.5C9.33464 39.5 0.5 30.7638 0.5 20C0.5 9.23618 9.33464 0.5 20.2456 0.5C31.1566 0.5 39.9912 9.23618 39.9912 20Z" stroke="#808080"/>
<path id="path1200_2" d="M22.5345 16.0002V14.4006C22.5345 13.6213 23.0982 13.4404 23.4936 13.4404H25.927V10.0127L22.5763 10C18.8565 10 18.0105 12.5562 18.0105 14.1924V16.0004H15.8594V18.4167V20H18.0291V30H22.367V20H25.5863L25.7425 18.4286L25.9822 16.0004L22.5345 16.0002Z" fill="#808080"/>
</g>
</g>
</svg>
