<svg id="Layer_1" data-name="Layer 1" xmlns="http://www.w3.org/2000/svg" width="97" height="47" viewBox="0 0 97 47"><defs><style>.cls-1,.cls-2{fill:#fff;}.cls-2{stroke:#fff;}.cls-2,.cls-4{stroke-miterlimit:10;stroke-width:0.25px;}.cls-3,.cls-4{fill:#ff7e00;}.cls-4{stroke:#ff7e00;}</style></defs><path class="cls-1" d="M49.5455,10.3826h2.2571l.9029-3.6113h-3.16V4.9656c0-.93,0-1.8057,1.8057-1.8057h1.3543V.1264A25.5773,25.5773,0,0,0,50.1234,0a3.9147,3.9147,0,0,0-4.1892,4.2433v2.528H43.2257v3.6113h2.7085v7.6742h3.6113Z"/><path class="cls-1" d="M83.2393,2.7085a1.8142,1.8142,0,1,1-.5327-1.2766A1.7908,1.7908,0,0,1,83.2393,2.7085ZM83.2935,5.85H79.6821V17.1539h3.6114Zm5.7059,0H85.4061V17.1539h3.5573V11.2223c0-3.3044,4.3065-3.6114,4.3065,0v5.9316h3.5662V9.9944c0-5.5705-6.3741-5.3628-7.8727-2.6272Z"/><g id="layer1"><path id="path1009" class="cls-2" d="M.3344,3.1937l5.4979,7.3511L.3,16.5215H1.545l4.8438-5.2328,3.9136,5.2328H14.54L8.7324,8.7571l5.15-5.5634H12.6368L8.176,8.013,4.5717,3.1937Zm2.03,1.0429H4.0936l8.3885,11.225H10.7527Z"/></g><path class="cls-3" d="M49.5455,39.3259h2.2571l.9029-3.6114h-3.16V33.9088c0-.93,0-1.8056,1.8057-1.8056h1.3543V29.07a25.5773,25.5773,0,0,0-2.5821-.1264,3.9148,3.9148,0,0,0-4.1892,4.2434v2.5279H43.2257v3.6114h2.7085V47h3.6113Z"/><path class="cls-3" d="M83.2393,31.6517a1.814,1.814,0,1,1-.5327-1.2766A1.7912,1.7912,0,0,1,83.2393,31.6517Zm.0542,3.1419H79.6821V46.0972h3.6114Zm5.7059,0H85.4061V46.0972h3.5573V40.1655c0-3.3044,4.3065-3.6113,4.3065,0v5.9317h3.5662v-7.16c0-5.5706-6.3741-5.3629-7.8727-2.6273Z"/><g id="layer1-2" data-name="layer1"><path id="path1009-2" data-name="path1009" class="cls-4" d="M.3344,32.137l5.4979,7.351L.3,45.4648H1.545l4.8438-5.2329,3.9136,5.2329H14.54L8.7324,37.7l5.15-5.5633H12.6368L8.176,36.9562,4.5717,32.137Zm2.03,1.0428H4.0936l8.3885,11.225H10.7527Z"/></g></svg>