<svg width="15" height="15" viewBox="0 0 15 15" fill="none" xmlns="http://www.w3.org/2000/svg">
<g id="Frame" clip-path="url(#clip0_911_3850)">
<path id="Union" fill-rule="evenodd" clip-rule="evenodd" d="M6.50283 0.26001C3.24225 0.26001 0.600098 2.90076 0.600098 6.16408C0.600098 9.41722 3.24155 12.0682 6.50283 12.0682C7.91743 12.0682 9.21563 11.5711 10.2322 10.7418L13.5759 14.0844C13.8103 14.3186 14.1902 14.3186 14.4245 14.0842C14.6587 13.8498 14.6587 13.4699 14.4243 13.2357L11.0805 9.89309C11.9089 8.87677 12.4056 7.57894 12.4056 6.16408C12.4056 2.90076 9.76342 0.26001 6.50283 0.26001ZM1.8001 6.16408C1.8001 3.56351 3.90498 1.46001 6.50283 1.46001C9.10068 1.46001 11.2056 3.56351 11.2056 6.16408C11.2056 8.76465 9.10068 10.8682 6.50283 10.8682C3.90568 10.8682 1.8001 8.75587 1.8001 6.16408Z" fill="#231F20"/>
</g>
<defs>
<clipPath id="clip0_911_3850">
<rect width="14" height="14" fill="white" transform="translate(0.600098 0.26001)"/>
</clipPath>
</defs>
</svg>
