<svg id="Layer_1" data-name="Layer 1" xmlns="http://www.w3.org/2000/svg" width="1920" height="58" viewBox="0 0 1920 58"><defs><style>.cls-1{opacity:0.5;}.cls-2{fill:#ff0;}</style></defs><g class="cls-1"><polygon class="cls-2" points="35.597 42.793 41.481 42.793 23.262 16.204 5.043 42.793 10.926 42.793 23.262 24.79 35.597 42.793"/><polygon class="cls-2" points="0 16.204 0 42.793 18.219 16.204 0 16.204"/><polygon class="cls-2" points="23.262 32.303 16.074 42.793 30.449 42.793 23.262 32.303"/><polygon class="cls-2" points="57.45 42.793 69.785 24.79 82.121 42.793 88.004 42.793 69.785 16.204 51.566 42.793 57.45 42.793"/><polygon class="cls-2" points="64.742 16.204 28.305 16.204 46.523 42.793 64.742 16.204"/><polygon class="cls-2" points="62.597 42.793 76.973 42.793 69.785 32.303 62.597 42.793"/><polygon class="cls-2" points="74.828 11.298 121.351 11.298 167.875 11.298 214.398 11.298 260.922 11.298 307.445 11.298 325.664 11.298 325.664 7.234 307.445 7.234 260.922 7.234 214.398 7.234 167.875 7.234 121.351 7.234 74.828 7.234 28.305 7.234 0 7.234 0 11.298 28.305 11.298 74.828 11.298"/><polygon class="cls-2" points="74.828 3.938 121.351 3.938 167.875 3.938 214.398 3.938 260.922 3.938 307.445 3.938 325.664 3.938 325.664 -0.126 307.445 -0.126 260.922 -0.126 214.398 -0.126 167.875 -0.126 121.351 -0.126 74.828 -0.126 28.305 -0.126 0 -0.126 0 3.938 28.305 3.938 74.828 3.938"/><polygon class="cls-2" points="103.973 42.793 116.309 24.79 128.644 42.793 134.528 42.793 116.309 16.204 98.09 42.793 103.973 42.793"/><polygon class="cls-2" points="111.266 16.204 74.828 16.204 93.047 42.793 111.266 16.204"/><polygon class="cls-2" points="109.121 42.793 123.496 42.793 116.309 32.303 109.121 42.793"/><polygon class="cls-2" points="150.496 42.793 162.832 24.79 175.168 42.793 181.051 42.793 162.832 16.204 144.613 42.793 150.496 42.793"/><polygon class="cls-2" points="157.789 16.204 121.351 16.204 139.57 42.793 157.789 16.204"/><polygon class="cls-2" points="155.644 42.793 170.02 42.793 162.832 32.303 155.644 42.793"/><polygon class="cls-2" points="197.02 42.793 209.356 24.79 221.691 42.793 227.574 42.793 209.356 16.204 191.137 42.793 197.02 42.793"/><polygon class="cls-2" points="204.313 16.204 167.875 16.204 186.094 42.793 204.313 16.204"/><polygon class="cls-2" points="202.168 42.793 216.543 42.793 209.356 32.303 202.168 42.793"/><polygon class="cls-2" points="243.543 42.793 255.879 24.79 268.215 42.793 274.098 42.793 255.879 16.204 237.66 42.793 243.543 42.793"/><polygon class="cls-2" points="250.836 16.204 214.398 16.204 232.617 42.793 250.836 16.204"/><polygon class="cls-2" points="248.691 42.793 263.067 42.793 255.879 32.303 248.691 42.793"/><polygon class="cls-2" points="290.067 42.793 302.403 24.79 314.738 42.793 320.621 42.793 302.403 16.204 284.184 42.793 290.067 42.793"/><polygon class="cls-2" points="297.36 16.204 260.922 16.204 279.141 42.793 297.36 16.204"/><polygon class="cls-2" points="295.215 42.793 309.59 42.793 302.403 32.303 295.215 42.793"/><polygon class="cls-2" points="74.828 58.126 121.351 58.126 167.875 58.126 214.398 58.126 260.922 58.126 307.445 58.126 325.664 58.126 325.664 47.699 307.445 47.699 260.922 47.699 214.398 47.699 167.875 47.699 121.351 47.699 74.828 47.699 28.305 47.699 0 47.699 0 58.126 28.305 58.126 74.828 58.126"/><polygon class="cls-2" points="325.664 42.793 325.664 16.204 307.445 16.204 325.664 42.793"/></g><g class="cls-1"><polygon class="cls-2" points="361.741 42.793 367.625 42.793 349.406 16.204 331.187 42.793 337.07 42.793 349.406 24.79 361.741 42.793"/><polygon class="cls-2" points="326.144 16.204 326.144 42.793 344.363 16.204 326.144 16.204"/><polygon class="cls-2" points="349.406 32.303 342.218 42.793 356.593 42.793 349.406 32.303"/><polygon class="cls-2" points="383.594 42.793 395.929 24.79 408.265 42.793 414.148 42.793 395.929 16.204 377.71 42.793 383.594 42.793"/><polygon class="cls-2" points="390.886 16.204 354.449 16.204 372.668 42.793 390.886 16.204"/><polygon class="cls-2" points="388.742 42.793 403.117 42.793 395.929 32.303 388.742 42.793"/><polygon class="cls-2" points="400.972 11.298 447.496 11.298 494.019 11.298 540.542 11.298 587.066 11.298 633.589 11.298 651.808 11.298 651.808 7.234 633.589 7.234 587.066 7.234 540.542 7.234 494.019 7.234 447.496 7.234 400.972 7.234 354.449 7.234 326.144 7.234 326.144 11.298 354.449 11.298 400.972 11.298"/><polygon class="cls-2" points="400.972 3.938 447.496 3.938 494.019 3.938 540.542 3.938 587.066 3.938 633.589 3.938 651.808 3.938 651.808 -0.126 633.589 -0.126 587.066 -0.126 540.542 -0.126 494.019 -0.126 447.496 -0.126 400.972 -0.126 354.449 -0.126 326.144 -0.126 326.144 3.938 354.449 3.938 400.972 3.938"/><polygon class="cls-2" points="430.117 42.793 442.453 24.79 454.788 42.793 460.672 42.793 442.453 16.204 424.234 42.793 430.117 42.793"/><polygon class="cls-2" points="437.41 16.204 400.972 16.204 419.191 42.793 437.41 16.204"/><polygon class="cls-2" points="435.265 42.793 449.64 42.793 442.453 32.303 435.265 42.793"/><polygon class="cls-2" points="476.641 42.793 488.976 24.79 501.312 42.793 507.195 42.793 488.976 16.204 470.757 42.793 476.641 42.793"/><polygon class="cls-2" points="483.933 16.204 447.496 16.204 465.714 42.793 483.933 16.204"/><polygon class="cls-2" points="481.788 42.793 496.164 42.793 488.976 32.303 481.788 42.793"/><polygon class="cls-2" points="523.164 42.793 535.5 24.79 547.835 42.793 553.719 42.793 535.5 16.204 517.281 42.793 523.164 42.793"/><polygon class="cls-2" points="530.457 16.204 494.019 16.204 512.238 42.793 530.457 16.204"/><polygon class="cls-2" points="528.312 42.793 542.687 42.793 535.5 32.303 528.312 42.793"/><polygon class="cls-2" points="569.688 42.793 582.023 24.79 594.359 42.793 600.242 42.793 582.023 16.204 563.804 42.793 569.688 42.793"/><polygon class="cls-2" points="576.98 16.204 540.542 16.204 558.761 42.793 576.98 16.204"/><polygon class="cls-2" points="574.835 42.793 589.211 42.793 582.023 32.303 574.835 42.793"/><polygon class="cls-2" points="616.211 42.793 628.547 24.79 640.882 42.793 646.765 42.793 628.547 16.204 610.328 42.793 616.211 42.793"/><polygon class="cls-2" points="623.504 16.204 587.066 16.204 605.285 42.793 623.504 16.204"/><polygon class="cls-2" points="621.359 42.793 635.734 42.793 628.547 32.303 621.359 42.793"/><polygon class="cls-2" points="400.972 58.126 447.496 58.126 494.019 58.126 540.542 58.126 587.066 58.126 633.589 58.126 651.808 58.126 651.808 47.699 633.589 47.699 587.066 47.699 540.542 47.699 494.019 47.699 447.496 47.699 400.972 47.699 354.449 47.699 326.144 47.699 326.144 58.126 354.449 58.126 400.972 58.126"/><polygon class="cls-2" points="651.808 42.793 651.808 16.204 633.589 16.204 651.808 42.793"/></g><g class="cls-1"><polygon class="cls-2" points="687.556 42.793 693.439 42.793 675.221 16.204 657.002 42.793 662.885 42.793 675.221 24.79 687.556 42.793"/><polygon class="cls-2" points="651.959 16.204 651.959 42.793 670.178 16.204 651.959 16.204"/><polygon class="cls-2" points="675.221 32.303 668.033 42.793 682.408 42.793 675.221 32.303"/><polygon class="cls-2" points="709.408 42.793 721.744 24.79 734.08 42.793 739.963 42.793 721.744 16.204 703.525 42.793 709.408 42.793"/><polygon class="cls-2" points="716.701 16.204 680.263 16.204 698.482 42.793 716.701 16.204"/><polygon class="cls-2" points="714.556 42.793 728.932 42.793 721.744 32.303 714.556 42.793"/><polygon class="cls-2" points="726.787 11.298 773.31 11.298 819.834 11.298 866.357 11.298 912.881 11.298 959.404 11.298 977.623 11.298 977.623 7.234 959.404 7.234 912.881 7.234 866.357 7.234 819.834 7.234 773.31 7.234 726.787 7.234 680.263 7.234 651.959 7.234 651.959 11.298 680.263 11.298 726.787 11.298"/><polygon class="cls-2" points="726.787 3.938 773.31 3.938 819.834 3.938 866.357 3.938 912.881 3.938 959.404 3.938 977.623 3.938 977.623 -0.126 959.404 -0.126 912.881 -0.126 866.357 -0.126 819.834 -0.126 773.31 -0.126 726.787 -0.126 680.263 -0.126 651.959 -0.126 651.959 3.938 680.263 3.938 726.787 3.938"/><polygon class="cls-2" points="755.932 42.793 768.268 24.79 780.603 42.793 786.486 42.793 768.268 16.204 750.049 42.793 755.932 42.793"/><polygon class="cls-2" points="763.225 16.204 726.787 16.204 745.006 42.793 763.225 16.204"/><polygon class="cls-2" points="761.08 42.793 775.455 42.793 768.268 32.303 761.08 42.793"/><polygon class="cls-2" points="802.455 42.793 814.791 24.79 827.127 42.793 833.01 42.793 814.791 16.204 796.572 42.793 802.455 42.793"/><polygon class="cls-2" points="809.748 16.204 773.31 16.204 791.529 42.793 809.748 16.204"/><polygon class="cls-2" points="807.603 42.793 821.979 42.793 814.791 32.303 807.603 42.793"/><polygon class="cls-2" points="848.979 42.793 861.314 24.79 873.65 42.793 879.533 42.793 861.314 16.204 843.096 42.793 848.979 42.793"/><polygon class="cls-2" points="856.272 16.204 819.834 16.204 838.053 42.793 856.272 16.204"/><polygon class="cls-2" points="854.127 42.793 868.502 42.793 861.314 32.303 854.127 42.793"/><polygon class="cls-2" points="895.502 42.793 907.838 24.79 920.174 42.793 926.057 42.793 907.838 16.204 889.619 42.793 895.502 42.793"/><polygon class="cls-2" points="902.795 16.204 866.357 16.204 884.576 42.793 902.795 16.204"/><polygon class="cls-2" points="900.65 42.793 915.026 42.793 907.838 32.303 900.65 42.793"/><polygon class="cls-2" points="942.026 42.793 954.361 24.79 966.697 42.793 972.58 42.793 954.361 16.204 936.142 42.793 942.026 42.793"/><polygon class="cls-2" points="949.319 16.204 912.881 16.204 931.1 42.793 949.319 16.204"/><polygon class="cls-2" points="947.174 42.793 961.549 42.793 954.361 32.303 947.174 42.793"/><polygon class="cls-2" points="726.787 58.126 773.31 58.126 819.834 58.126 866.357 58.126 912.881 58.126 959.404 58.126 977.623 58.126 977.623 47.699 959.404 47.699 912.881 47.699 866.357 47.699 819.834 47.699 773.31 47.699 726.787 47.699 680.263 47.699 651.959 47.699 651.959 58.126 680.263 58.126 726.787 58.126"/><polygon class="cls-2" points="977.623 42.793 977.623 16.204 959.404 16.204 977.623 42.793"/></g><g class="cls-1"><polygon class="cls-2" points="1013.127 42.793 1019.01 42.793 1000.791 16.204 982.572 42.793 988.456 42.793 1000.791 24.79 1013.127 42.793"/><polygon class="cls-2" points="977.529 16.204 977.529 42.793 995.748 16.204 977.529 16.204"/><polygon class="cls-2" points="1000.791 32.303 993.603 42.793 1007.979 42.793 1000.791 32.303"/><polygon class="cls-2" points="1034.979 42.793 1047.315 24.79 1059.65 42.793 1065.533 42.793 1047.315 16.204 1029.096 42.793 1034.979 42.793"/><polygon class="cls-2" points="1042.272 16.204 1005.834 16.204 1024.053 42.793 1042.272 16.204"/><polygon class="cls-2" points="1040.127 42.793 1054.502 42.793 1047.315 32.303 1040.127 42.793"/><polygon class="cls-2" points="1052.357 11.298 1098.881 11.298 1145.404 11.298 1191.928 11.298 1238.451 11.298 1284.975 11.298 1303.194 11.298 1303.194 7.234 1284.975 7.234 1238.451 7.234 1191.928 7.234 1145.404 7.234 1098.881 7.234 1052.357 7.234 1005.834 7.234 977.529 7.234 977.529 11.298 1005.834 11.298 1052.357 11.298"/><polygon class="cls-2" points="1052.357 3.938 1098.881 3.938 1145.404 3.938 1191.928 3.938 1238.451 3.938 1284.975 3.938 1303.194 3.938 1303.194 -0.126 1284.975 -0.126 1238.451 -0.126 1191.928 -0.126 1145.404 -0.126 1098.881 -0.126 1052.357 -0.126 1005.834 -0.126 977.529 -0.126 977.529 3.938 1005.834 3.938 1052.357 3.938"/><polygon class="cls-2" points="1081.502 42.793 1093.838 24.79 1106.174 42.793 1112.057 42.793 1093.838 16.204 1075.619 42.793 1081.502 42.793"/><polygon class="cls-2" points="1088.795 16.204 1052.357 16.204 1070.576 42.793 1088.795 16.204"/><polygon class="cls-2" points="1086.65 42.793 1101.026 42.793 1093.838 32.303 1086.65 42.793"/><polygon class="cls-2" points="1128.026 42.793 1140.362 24.79 1152.697 42.793 1158.58 42.793 1140.362 16.204 1122.143 42.793 1128.026 42.793"/><polygon class="cls-2" points="1135.319 16.204 1098.881 16.204 1117.1 42.793 1135.319 16.204"/><polygon class="cls-2" points="1133.174 42.793 1147.549 42.793 1140.362 32.303 1133.174 42.793"/><polygon class="cls-2" points="1174.549 42.793 1186.885 24.79 1199.221 42.793 1205.104 42.793 1186.885 16.204 1168.666 42.793 1174.549 42.793"/><polygon class="cls-2" points="1181.842 16.204 1145.404 16.204 1163.623 42.793 1181.842 16.204"/><polygon class="cls-2" points="1179.697 42.793 1194.073 42.793 1186.885 32.303 1179.697 42.793"/><polygon class="cls-2" points="1221.073 42.793 1233.408 24.79 1245.744 42.793 1251.627 42.793 1233.408 16.204 1215.19 42.793 1221.073 42.793"/><polygon class="cls-2" points="1228.366 16.204 1191.928 16.204 1210.147 42.793 1228.366 16.204"/><polygon class="cls-2" points="1226.221 42.793 1240.596 42.793 1233.408 32.303 1226.221 42.793"/><polygon class="cls-2" points="1267.596 42.793 1279.932 24.79 1292.268 42.793 1298.151 42.793 1279.932 16.204 1261.713 42.793 1267.596 42.793"/><polygon class="cls-2" points="1274.889 16.204 1238.451 16.204 1256.67 42.793 1274.889 16.204"/><polygon class="cls-2" points="1272.744 42.793 1287.12 42.793 1279.932 32.303 1272.744 42.793"/><polygon class="cls-2" points="1052.357 58.126 1098.881 58.126 1145.404 58.126 1191.928 58.126 1238.451 58.126 1284.975 58.126 1303.194 58.126 1303.194 47.699 1284.975 47.699 1238.451 47.699 1191.928 47.699 1145.404 47.699 1098.881 47.699 1052.357 47.699 1005.834 47.699 977.529 47.699 977.529 58.126 1005.834 58.126 1052.357 58.126"/><polygon class="cls-2" points="1303.194 42.793 1303.194 16.204 1284.975 16.204 1303.194 42.793"/></g><g class="cls-1"><polygon class="cls-2" points="1339.271 42.793 1345.154 42.793 1326.935 16.204 1308.716 42.793 1314.6 42.793 1326.935 24.79 1339.271 42.793"/><polygon class="cls-2" points="1303.673 16.204 1303.673 42.793 1321.892 16.204 1303.673 16.204"/><polygon class="cls-2" points="1326.935 32.303 1319.747 42.793 1334.123 42.793 1326.935 32.303"/><polygon class="cls-2" points="1361.123 42.793 1373.459 24.79 1385.794 42.793 1391.678 42.793 1373.459 16.204 1355.24 42.793 1361.123 42.793"/><polygon class="cls-2" points="1368.416 16.204 1331.978 16.204 1350.197 42.793 1368.416 16.204"/><polygon class="cls-2" points="1366.271 42.793 1380.646 42.793 1373.459 32.303 1366.271 42.793"/><polygon class="cls-2" points="1378.501 11.298 1425.025 11.298 1471.548 11.298 1518.072 11.298 1564.595 11.298 1611.119 11.298 1629.338 11.298 1629.338 7.234 1611.119 7.234 1564.595 7.234 1518.072 7.234 1471.548 7.234 1425.025 7.234 1378.501 7.234 1331.978 7.234 1303.673 7.234 1303.673 11.298 1331.978 11.298 1378.501 11.298"/><polygon class="cls-2" points="1378.501 3.938 1425.025 3.938 1471.548 3.938 1518.072 3.938 1564.595 3.938 1611.119 3.938 1629.338 3.938 1629.338 -0.126 1611.119 -0.126 1564.595 -0.126 1518.072 -0.126 1471.548 -0.126 1425.025 -0.126 1378.501 -0.126 1331.978 -0.126 1303.673 -0.126 1303.673 3.938 1331.978 3.938 1378.501 3.938"/><polygon class="cls-2" points="1407.647 42.793 1419.982 24.79 1432.318 42.793 1438.201 42.793 1419.982 16.204 1401.763 42.793 1407.647 42.793"/><polygon class="cls-2" points="1414.939 16.204 1378.501 16.204 1396.72 42.793 1414.939 16.204"/><polygon class="cls-2" points="1412.794 42.793 1427.17 42.793 1419.982 32.303 1412.794 42.793"/><polygon class="cls-2" points="1454.17 42.793 1466.506 24.79 1478.841 42.793 1484.724 42.793 1466.506 16.204 1448.287 42.793 1454.17 42.793"/><polygon class="cls-2" points="1461.463 16.204 1425.025 16.204 1443.244 42.793 1461.463 16.204"/><polygon class="cls-2" points="1459.318 42.793 1473.693 42.793 1466.506 32.303 1459.318 42.793"/><polygon class="cls-2" points="1500.693 42.793 1513.029 24.79 1525.365 42.793 1531.248 42.793 1513.029 16.204 1494.81 42.793 1500.693 42.793"/><polygon class="cls-2" points="1507.986 16.204 1471.548 16.204 1489.767 42.793 1507.986 16.204"/><polygon class="cls-2" points="1505.841 42.793 1520.217 42.793 1513.029 32.303 1505.841 42.793"/><polygon class="cls-2" points="1547.217 42.793 1559.553 24.79 1571.888 42.793 1577.771 42.793 1559.553 16.204 1541.334 42.793 1547.217 42.793"/><polygon class="cls-2" points="1554.51 16.204 1518.072 16.204 1536.291 42.793 1554.51 16.204"/><polygon class="cls-2" points="1552.365 42.793 1566.74 42.793 1559.553 32.303 1552.365 42.793"/><polygon class="cls-2" points="1593.74 42.793 1606.076 24.79 1618.412 42.793 1624.295 42.793 1606.076 16.204 1587.857 42.793 1593.74 42.793"/><polygon class="cls-2" points="1601.033 16.204 1564.595 16.204 1582.814 42.793 1601.033 16.204"/><polygon class="cls-2" points="1598.888 42.793 1613.264 42.793 1606.076 32.303 1598.888 42.793"/><polygon class="cls-2" points="1378.501 58.126 1425.025 58.126 1471.548 58.126 1518.072 58.126 1564.595 58.126 1611.119 58.126 1629.338 58.126 1629.338 47.699 1611.119 47.699 1564.595 47.699 1518.072 47.699 1471.548 47.699 1425.025 47.699 1378.501 47.699 1331.978 47.699 1303.673 47.699 1303.673 58.126 1331.978 58.126 1378.501 58.126"/><polygon class="cls-2" points="1629.338 42.793 1629.338 16.204 1611.119 16.204 1629.338 42.793"/></g><g class="cls-1"><polygon class="cls-2" points="1664.9 42.793 1670.783 42.793 1652.564 16.204 1634.345 42.793 1640.229 42.793 1652.564 24.79 1664.9 42.793"/><polygon class="cls-2" points="1629.303 16.204 1629.303 42.793 1647.521 16.204 1629.303 16.204"/><polygon class="cls-2" points="1652.564 32.303 1645.377 42.793 1659.752 42.793 1652.564 32.303"/><polygon class="cls-2" points="1686.752 42.793 1699.088 24.79 1711.423 42.793 1717.307 42.793 1699.088 16.204 1680.869 42.793 1686.752 42.793"/><polygon class="cls-2" points="1694.045 16.204 1657.607 16.204 1675.826 42.793 1694.045 16.204"/><polygon class="cls-2" points="1691.9 42.793 1706.276 42.793 1699.088 32.303 1691.9 42.793"/><polygon class="cls-2" points="1704.131 11.298 1750.654 11.298 1797.178 11.298 1843.701 11.298 1890.225 11.298 1936.748 11.298 1954.967 11.298 1954.967 7.234 1936.748 7.234 1890.225 7.234 1843.701 7.234 1797.178 7.234 1750.654 7.234 1704.131 7.234 1657.607 7.234 1629.303 7.234 1629.303 11.298 1657.607 11.298 1704.131 11.298"/><polygon class="cls-2" points="1704.131 3.938 1750.654 3.938 1797.178 3.938 1843.701 3.938 1890.225 3.938 1936.748 3.938 1954.967 3.938 1954.967 -0.126 1936.748 -0.126 1890.225 -0.126 1843.701 -0.126 1797.178 -0.126 1750.654 -0.126 1704.131 -0.126 1657.607 -0.126 1629.303 -0.126 1629.303 3.938 1657.607 3.938 1704.131 3.938"/><polygon class="cls-2" points="1733.276 42.793 1745.611 24.79 1757.947 42.793 1763.83 42.793 1745.611 16.204 1727.392 42.793 1733.276 42.793"/><polygon class="cls-2" points="1740.568 16.204 1704.131 16.204 1722.35 42.793 1740.568 16.204"/><polygon class="cls-2" points="1738.424 42.793 1752.799 42.793 1745.611 32.303 1738.424 42.793"/><polygon class="cls-2" points="1779.799 42.793 1792.135 24.79 1804.47 42.793 1810.354 42.793 1792.135 16.204 1773.916 42.793 1779.799 42.793"/><polygon class="cls-2" points="1787.092 16.204 1750.654 16.204 1768.873 42.793 1787.092 16.204"/><polygon class="cls-2" points="1784.947 42.793 1799.322 42.793 1792.135 32.303 1784.947 42.793"/><polygon class="cls-2" points="1826.323 42.793 1838.658 24.79 1850.994 42.793 1856.877 42.793 1838.658 16.204 1820.439 42.793 1826.323 42.793"/><polygon class="cls-2" points="1833.615 16.204 1797.178 16.204 1815.396 42.793 1833.615 16.204"/><polygon class="cls-2" points="1831.47 42.793 1845.846 42.793 1838.658 32.303 1831.47 42.793"/><polygon class="cls-2" points="1872.846 42.793 1885.182 24.79 1897.517 42.793 1903.401 42.793 1885.182 16.204 1866.963 42.793 1872.846 42.793"/><polygon class="cls-2" points="1880.139 16.204 1843.701 16.204 1861.92 42.793 1880.139 16.204"/><polygon class="cls-2" points="1877.994 42.793 1892.369 42.793 1885.182 32.303 1877.994 42.793"/><polygon class="cls-2" points="1919.37 42.793 1931.705 24.79 1944.041 42.793 1949.924 42.793 1931.705 16.204 1913.486 42.793 1919.37 42.793"/><polygon class="cls-2" points="1926.662 16.204 1890.225 16.204 1908.443 42.793 1926.662 16.204"/><polygon class="cls-2" points="1704.131 58.126 1750.654 58.126 1797.178 58.126 1843.701 58.126 1890.225 58.126 1936.748 58.126 1954.967 58.126 1954.967 47.699 1936.748 47.699 1890.225 47.699 1843.701 47.699 1797.178 47.699 1750.654 47.699 1704.131 47.699 1657.607 47.699 1629.303 47.699 1629.303 58.126 1657.607 58.126 1704.131 58.126"/></g></svg>